<?xml version="1.0" standalone="no"?>
<!DOCTYPE svg PUBLIC "-//W3C//DTD SVG 1.1//EN" "http://www.w3.org/Graphics/SVG/1.1/DTD/svg11.dtd" >
<svg xmlns="http://www.w3.org/2000/svg" xmlns:xlink="http://www.w3.org/1999/xlink" version="1.1">
<metadata>
Created by FontForge 20201107 at Sun Oct 20 00:32:13 2024
 By 
Copyright (c) 2023 by Giulio Puccini. All rights reserved.
</metadata>
<defs>
<font id="RegestoGrotesk-Medium" horiz-adv-x="1140" >
  <font-face 
    font-family="Regesto Grotesk Medium"
    font-weight="500"
    font-stretch="normal"
    units-per-em="2048"
    panose-1="0 0 0 0 0 0 0 0 0 0"
    ascent="1638"
    descent="-410"
    x-height="1044"
    cap-height="1454"
    bbox="-70 -440 1939 1485"
    underline-thickness="102"
    underline-position="-255"
    unicode-range="U+0020-1E9E"
  />
<missing-glyph horiz-adv-x="1251" 
d="M68 0v1454h1116v-1454h-1116zM231 252l308 475l-308 475v-950zM338 147h575l-286 445zM338 1307l289 -445l286 445h-575zM713 727l307 -475v950z" />
    <glyph glyph-name=".notdef" horiz-adv-x="1251" 
d="M68 0v1454h1116v-1454h-1116zM231 252l308 475l-308 475v-950zM338 147h575l-286 445zM338 1307l289 -445l286 445h-575zM713 727l307 -475v950z" />
    <glyph glyph-name=".null" horiz-adv-x="0" 
 />
    <glyph glyph-name="nonmarkingreturn" horiz-adv-x="682" 
 />
    <glyph glyph-name="space" unicode=" " horiz-adv-x="530" 
 />
    <glyph glyph-name="space" unicode="&#xa0;" horiz-adv-x="530" 
 />
    <glyph glyph-name="exclam" unicode="!" horiz-adv-x="421" 
d="M113 401l-13 1053h219l-12 -1053h-194zM100 0v217h219v-217h-219z" />
    <glyph glyph-name="comma" unicode="," horiz-adv-x="352" 
d="M18 -360l101 571h215l-150 -571h-166z" />
    <glyph glyph-name="period" unicode="." horiz-adv-x="376" 
d="M80 0v217h217v-217h-217z" />
    <glyph glyph-name="zero" unicode="0" horiz-adv-x="1282" 
d="M641 -29q-267 0 -418 200t-151 556q0 357 151 557.5t418 200.5t418 -200.5t151 -557.5q0 -356 -151 -556t-418 -200zM281 727q0 -267 95 -417t265 -150t265 150t95 417q0 270 -95 421.5t-265 151.5t-265 -151.5t-95 -421.5z" />
    <glyph glyph-name="one" unicode="1" horiz-adv-x="710" 
d="M387 0v1032h-350v158q202 0 284 57.5t93 204.5h178v-1452h-205z" />
    <glyph glyph-name="two" unicode="2" horiz-adv-x="1167" 
d="M82 0q0 101 27.5 188.5t74.5 153t108 123t128.5 104t134.5 91t128 90.5t108 94.5t74.5 110.5t27.5 132q0 109 -75 170.5t-208 61.5q-141 0 -219 -90t-78 -252h-207q0 239 133 373.5t371 134.5q233 0 363.5 -105t130.5 -293q0 -79 -24 -151t-64.5 -129t-94 -109t-113 -96
t-120 -85t-117 -80t-101.5 -77t-76.5 -81t-39.5 -86h750v-193h-1022z" />
    <glyph glyph-name="three" unicode="3" horiz-adv-x="1202" 
d="M598 -29q-249 0 -387.5 133t-138.5 371h213q0 -154 82 -239.5t231 -85.5q151 0 234 70t83 196t-84.5 197t-236.5 71h-100v172h104q130 0 203 64t73 178q0 106 -73 165.5t-203 59.5q-141 0 -220 -91.5t-79 -254.5h-205q0 239 133 373.5t371 134.5q228 0 355.5 -102
t127.5 -285q0 -114 -57 -200.5t-160 -129.5q124 -33 196.5 -130t72.5 -222q-2 -211 -142.5 -328t-392.5 -117z" />
    <glyph glyph-name="four" unicode="4" horiz-adv-x="1234" 
d="M61 545l711 909h193v-899h209v-195h-209v-360h-201v360h-703v185zM289 555h475v608z" />
    <glyph glyph-name="five" unicode="5" horiz-adv-x="1198" 
d="M614 -29q-242 0 -377 131t-135 363h213q0 -149 79 -232t220 -83q143 0 224.5 86t81.5 241q0 152 -81.5 237t-224.5 85q-97 0 -160 -30.5t-128 -98.5h-195l113 784h823v-184h-655l-56 -389q63 49 131.5 70.5t161.5 21.5q225 0 351 -132t126 -364q0 -238 -135.5 -372
t-376.5 -134z" />
    <glyph glyph-name="six" unicode="6" horiz-adv-x="1187" 
d="M590 -29q-253 0 -385.5 182.5t-132.5 528.5q0 374 143 588.5t393 214.5q215 0 349 -113.5t151 -308.5h-213q-14 111 -92 178.5t-195 67.5q-150 0 -243.5 -142t-104.5 -381q46 76 140 122t206 46q249 0 385.5 -124t136.5 -351q2 -236 -142 -372t-396 -136zM297 471
q0 -154 82.5 -241t228.5 -87q148 0 232 87t84 241q0 145 -82.5 227t-227.5 82q-149 0 -233 -82t-84 -227z" />
    <glyph glyph-name="seven" unicode="7" horiz-adv-x="1118" 
d="M248 0q19 124 34.5 206.5t40.5 188t53 182.5t71.5 170t97.5 172t128.5 167.5t166.5 175.5h-799v192h1057v-176q-113 -104 -200 -205.5t-150 -205t-107 -198t-76.5 -211.5t-53 -217.5t-42.5 -240.5h-221z" />
    <glyph glyph-name="eight" unicode="8" horiz-adv-x="1210" 
d="M606 -29q-252 0 -393 117t-141 326q0 131 69 225.5t197 140.5q-104 45 -159.5 126.5t-55.5 193.5q0 181 128 283t355 102t355.5 -102t128.5 -283q0 -111 -56 -193t-160 -127q128 -46 196.5 -140t68.5 -226q0 -209 -140.5 -326t-392.5 -117zM285 416q2 -129 86 -201
t235 -72t235.5 72t84.5 201q0 133 -84.5 206.5t-235.5 73.5q-152 0 -236.5 -73.5t-84.5 -206.5zM328 1098q0 -107 74 -168.5t204 -61.5q132 0 205.5 61t73.5 169q0 106 -73.5 166.5t-205.5 60.5q-130 0 -204 -60.5t-74 -166.5z" />
    <glyph glyph-name="nine" unicode="9" horiz-adv-x="1187" 
d="M580 -29q-215 0 -349 113.5t-151 308.5h213q14 -111 92 -178.5t195 -67.5q145 0 241.5 143t106.5 380q-46 -76 -140 -122t-206 -46q-249 0 -386 124t-137 351q-1 236 143 372t396 136q518 0 518 -711q0 -376 -140.5 -589.5t-395.5 -213.5zM264 985q0 -145 82 -227
t227 -82q149 0 233.5 82t84.5 227q0 154 -82.5 241t-228.5 87q-148 0 -232 -87t-84 -241z" />
    <glyph glyph-name="question" unicode="?" horiz-adv-x="1036" 
d="M410 371q0 68 13 126.5t30 98t48.5 80t53.5 62t61 55.5q51 45 81.5 78.5t55.5 87t25 112.5q0 120 -67 186t-189 66q-128 0 -198 -82t-70 -233h-195q0 227 121 352t342 125q217 0 336 -100.5t119 -286.5q0 -63 -12 -117.5t-28.5 -91.5t-46.5 -76t-52 -61t-60 -56
q-44 -39 -67 -63t-52 -64.5t-42 -89t-13 -108.5h-194zM397 0v217h217v-217h-217z" />
    <glyph glyph-name="A" unicode="A" horiz-adv-x="1343" 
d="M1092 0l-142 403h-557l-141 -403h-238l539 1454h238l538 -1454h-237zM457 588h430l-215 614z" />
    <glyph glyph-name="B" unicode="B" horiz-adv-x="1226" 
d="M115 0v1454h491q295 0 415 -88t120 -305q0 -129 -66.5 -199t-214.5 -96q173 -23 250.5 -105t77.5 -243q0 -219 -133.5 -318.5t-427.5 -99.5h-512zM319 188h308q346 0 346 234q0 244 -346 244h-308v-478zM319 838h287q173 0 246.5 50t73.5 167t-72.5 165t-247.5 48h-287
v-430z" />
    <glyph glyph-name="C" unicode="C" horiz-adv-x="1431" 
d="M721 -29q-306 0 -477.5 200t-171.5 558q0 356 171.5 556t477.5 200q268 0 437.5 -147t201.5 -408h-219q-32 171 -143 266.5t-277 95.5q-204 0 -318 -148.5t-114 -414.5q0 -264 114 -412.5t318 -148.5q164 0 275 87.5t143 244.5h217q-37 -249 -205 -389t-430 -140z" />
    <glyph glyph-name="D" unicode="D" horiz-adv-x="1384" 
d="M115 0v1454h514q338 0 511 -184t173 -543t-173 -543t-511 -184h-514zM324 184h305q233 0 353 137.5t120 405.5t-120 405.5t-353 137.5h-305v-1086z" />
    <glyph glyph-name="E" unicode="E" horiz-adv-x="1216" 
d="M121 0v1454h1009v-190h-800v-414h751v-191h-751v-466h805v-193h-1014z" />
    <glyph glyph-name="F" unicode="F" horiz-adv-x="1175" 
d="M115 0v1454h999v-192h-790v-412h720v-195h-720v-655h-209z" />
    <glyph glyph-name="G" unicode="G" horiz-adv-x="1449" 
d="M731 -29q-311 0 -485 200t-174 558q0 356 174 556t485 200q274 0 442.5 -131.5t196.5 -366.5h-217q-26 146 -137 226.5t-285 80.5q-210 0 -327 -149.5t-117 -415.5q0 -265 117 -413t327 -148q189 0 304 107.5t132 299.5h-438v183h651v-758h-180v266
q-66 -142 -186.5 -218.5t-282.5 -76.5z" />
    <glyph glyph-name="H" unicode="H" horiz-adv-x="1347" 
d="M115 0v1454h209v-598h700v598h207v-1454h-207v664h-700v-664h-209z" />
    <glyph glyph-name="I" unicode="I" horiz-adv-x="438" 
d="M115 0v1454h209v-1454h-209z" />
    <glyph glyph-name="J" unicode="J" horiz-adv-x="1038" 
d="M483 -29q-227 0 -334.5 122t-107.5 380h203q0 -161 58 -237t181 -76q120 0 177 84t57 264v946h209v-987q0 -255 -108 -375.5t-335 -120.5z" />
    <glyph glyph-name="K" unicode="K" horiz-adv-x="1288" 
d="M1010 0l-506 633h-180v-633h-209v1454h209v-633h174l510 635h256l-580 -723l590 -733h-264z" />
    <glyph glyph-name="L" unicode="L" horiz-adv-x="1095" 
d="M115 0v1454h209v-1261h710v-193h-919z" />
    <glyph glyph-name="M" unicode="M" horiz-adv-x="1630" 
d="M700 0l-370 1190v-1190h-209v1454h344l350 -1184l350 1184h342v-1454h-207v1196l-370 -1196h-230z" />
    <glyph glyph-name="N" unicode="N" horiz-adv-x="1353" 
d="M948 0l-618 1167v-1167h-209v1454h278l625 -1180v1180h207v-1454h-283z" />
    <glyph glyph-name="O" unicode="O" horiz-adv-x="1517" 
d="M758 -29q-324 0 -505 200t-181 556q0 358 181 558t505 200q325 0 506.5 -200t181.5 -558q0 -357 -181.5 -556.5t-506.5 -199.5zM281 727q0 -267 126 -417t351 -150q226 0 352.5 150t126.5 417q0 270 -126.5 421.5t-352.5 151.5t-351.5 -151.5t-125.5 -421.5z" />
    <glyph glyph-name="P" unicode="P" horiz-adv-x="1243" 
d="M115 0v1454h514q287 0 414.5 -105.5t127.5 -332.5q0 -228 -127 -332t-415 -104h-303v-580h-211zM326 768h303q171 0 251.5 60t80.5 186q0 131 -80.5 192.5t-251.5 61.5h-303v-500z" />
    <glyph glyph-name="Q" unicode="Q" horiz-adv-x="1548" 
d="M1477 -14l-254 143q-178 -158 -465 -158q-324 0 -505 200t-181 556q0 358 181 558t505 200q325 0 506.5 -200t181.5 -558q0 -264 -105 -451l136 -71v-219zM281 727q0 -267 126 -417t351 -150q155 0 270 76l-260 141v219l389 -219q80 139 80 350q0 270 -126.5 421.5
t-352.5 151.5t-351.5 -151.5t-125.5 -421.5z" />
    <glyph glyph-name="R" unicode="R" horiz-adv-x="1290" 
d="M115 0v1454h520q290 0 417.5 -103.5t127.5 -330.5q0 -114 -60.5 -193t-161.5 -120q189 -38 189 -218q0 -127 3 -196t19.5 -152.5t49.5 -140.5h-232q-34 50 -43.5 117.5t-9.5 179.5q0 81 -1 114.5t-14.5 76.5t-33.5 55t-69 27.5t-111 17.5t-168 2h-211v-590h-211zM326 778
h309q172 0 252 59.5t80 182.5t-80.5 184.5t-251.5 61.5h-309v-488z" />
    <glyph glyph-name="S" unicode="S" horiz-adv-x="1298" 
d="M657 -29q-267 0 -427 132t-164 356h219q2 -132 102 -210.5t270 -78.5q161 0 257 62.5t96 166.5q0 34 -8 62.5t-25.5 49.5t-36 37.5t-50.5 29t-56.5 20.5t-66 15t-67 10.5t-71.5 9.5q-90 11 -161 26.5t-145.5 45.5t-124 71t-81 105.5t-31.5 146.5q0 209 150.5 333
t404.5 124q244 0 391.5 -128t153.5 -345h-217q-6 129 -94 204.5t-234 75.5q-155 0 -246.5 -61t-91.5 -164q0 -38 11.5 -69t28.5 -52.5t49 -38t58 -26.5t72 -18t75.5 -11.5t82.5 -9.5q91 -10 165.5 -26t149.5 -47.5t125.5 -74.5t82.5 -110t32 -152q0 -212 -156.5 -336.5
t-421.5 -124.5z" />
    <glyph glyph-name="T" unicode="T" horiz-adv-x="1210" 
d="M504 0v1262h-463v192h1130v-192h-460v-1262h-207z" />
    <glyph glyph-name="U" unicode="U" horiz-adv-x="1331" 
d="M668 -29q-273 0 -415 138.5t-142 402.5v942h211v-901q0 -190 88.5 -289.5t257.5 -99.5q168 0 255 99t87 290v901h211v-942q0 -264 -141.5 -402.5t-411.5 -138.5z" />
    <glyph glyph-name="V" unicode="V" horiz-adv-x="1331" 
d="M547 0l-533 1454h242l410 -1188l409 1188h242l-533 -1454h-237z" />
    <glyph glyph-name="W" unicode="W" horiz-adv-x="1959" 
d="M451 0l-431 1454h236l315 -1137l275 1137h264l279 -1141l315 1141h235l-432 -1454h-241l-285 1139l-289 -1139h-241z" />
    <glyph glyph-name="X" unicode="X" horiz-adv-x="1331" 
d="M14 0l521 748l-484 706h268l351 -539l360 539h275l-500 -706l512 -748h-268l-385 571l-379 -571h-271z" />
    <glyph glyph-name="Y" unicode="Y" horiz-adv-x="1335" 
d="M561 0v549l-547 905h260l394 -694l395 694h258l-545 -905v-549h-215z" />
    <glyph glyph-name="Z" unicode="Z" horiz-adv-x="1234" 
d="M61 0v186l850 1074h-809v194h1074v-186l-844 -1073h844v-195h-1115z" />
    <glyph glyph-name="a" unicode="a" horiz-adv-x="1040" 
d="M451 -23q-201 0 -296.5 85t-95.5 264q0 40 9 74.5t22 60.5t37 49t44.5 38.5t55.5 29.5t59.5 22t66 17t64.5 13t66 11q149 26 197 48q68 32 68 89q0 66 -55.5 97.5t-172.5 31.5q-115 0 -172.5 -43.5t-62.5 -134.5h-189q6 177 109.5 261.5t314.5 84.5q218 0 321 -77
t103 -240v-758h-196v131q-93 -154 -297 -154zM262 309q0 -84 52 -129t147 -45q147 0 217 68.5t70 212.5v157q-20 -21 -58 -37t-68.5 -23t-86.5 -17q-44 -8 -68 -13.5t-61.5 -16t-58.5 -23t-43 -31t-32 -44.5t-10 -59z" />
    <glyph glyph-name="b" unicode="b" 
d="M602 -29q-192 0 -307 154v-125h-195v1454h199v-522q116 143 307 143q232 0 354.5 -144.5t122.5 -406.5q0 -261 -130 -407t-351 -146zM291 524q0 -175 74.5 -280t230.5 -105q283 0 283 385q0 383 -281 383q-155 0 -231 -105t-76 -278z" />
    <glyph glyph-name="c" unicode="c" horiz-adv-x="1081" 
d="M563 -29q-238 0 -371 146t-133 407q0 260 133 405.5t371 145.5q201 0 322.5 -108.5t134.5 -300.5h-197q-17 115 -86 180t-174 65q-143 0 -224 -102.5t-81 -284.5q0 -178 81 -278.5t224 -100.5q108 0 177 61t83 167h199q-15 -189 -136.5 -295.5t-322.5 -106.5z" />
    <glyph glyph-name="d" unicode="d" 
d="M541 -29q-226 0 -354 144t-128 409q0 248 129.5 399.5t348.5 151.5q192 0 305 -143v522h198v-1454h-192v127q-114 -156 -307 -156zM260 524q0 -383 287 -383q155 0 229 104t74 279q0 173 -76 278t-231 105q-147 0 -215 -101.5t-68 -281.5z" />
    <glyph glyph-name="e" unicode="e" horiz-adv-x="1103" 
d="M551 -29q-235 0 -363.5 145.5t-128.5 407.5q0 260 131.5 405.5t368.5 145.5q108 0 194 -30.5t152.5 -96t102.5 -177.5t36 -265v-37h-778q16 -326 287 -326q101 0 171.5 41t109.5 142h198q-21 -97 -70 -168t-116.5 -110.5t-140.5 -58t-154 -18.5zM272 629h572
q-4 131 -83 208.5t-202 77.5q-130 0 -201.5 -75t-85.5 -211z" />
    <glyph glyph-name="f" unicode="f" horiz-adv-x="653" 
d="M178 1225q0 117 70 187.5t186 70.5h180v-180h-88q-89 0 -118 -26t-29 -108v-125h207v-165h-207v-879h-201v879h-137v165h137v181z" />
    <glyph glyph-name="g" unicode="g" 
d="M561 -440q-66 0 -124.5 11t-114.5 37t-99.5 65.5t-77 101t-49.5 139.5h197q70 -188 266 -188q153 0 219 98.5t66 286.5v18q-118 -141 -307 -141q-231 0 -354.5 136.5t-123.5 395.5q0 261 130 407t352 146q192 0 305 -151v122h194v-946q0 -276 -119 -407t-360 -131z
M260 520q0 -362 283 -362q154 0 231.5 97t77.5 265q0 175 -75 280t-230 105q-287 0 -287 -385z" />
    <glyph glyph-name="h" unicode="h" horiz-adv-x="1060" 
d="M766 631q0 145 -52 214.5t-169 69.5q-124 0 -185 -90.5t-61 -259.5v-565h-199v1458h199v-534q55 76 136 113.5t173 37.5q162 0 259.5 -101.5t97.5 -273.5v-700h-199v631z" />
    <glyph glyph-name="i" unicode="i" horiz-adv-x="382" 
d="M100 1241v209h189v-209h-189zM92 0v1044h199v-1044h-199z" />
    <glyph glyph-name="j" unicode="j" horiz-adv-x="438" 
d="M152 1241v209h188v-209h-188zM-70 -399v180h66q88 0 118.5 32.5t30.5 127.5v1103h197v-1167q0 -129 -71.5 -202.5t-200.5 -73.5h-140z" />
    <glyph glyph-name="k" unicode="k" horiz-adv-x="1032" 
d="M770 0l-354 451h-117v-451h-199v1458h199v-821h113l317 407h238l-385 -491l436 -553h-248z" />
    <glyph glyph-name="l" unicode="l" horiz-adv-x="397" 
d="M100 0v1458h197v-1458h-197z" />
    <glyph glyph-name="m" unicode="m" horiz-adv-x="1687" 
d="M1391 631q0 144 -53 214t-169 70q-121 0 -173 -89t-52 -263v-563h-201v631q0 144 -51.5 214t-167.5 70q-122 0 -174.5 -89t-52.5 -263v-563h-197v1044h191v-120q103 151 297 151q102 0 185 -48.5t128 -137.5q86 186 332 186q165 0 261.5 -98t96.5 -279v-698h-200v631z
" />
    <glyph glyph-name="n" unicode="n" horiz-adv-x="1060" 
d="M764 631q0 147 -52 215.5t-169 68.5q-124 0 -185 -91.5t-61 -260.5v-563h-197v1044h191v-131q55 81 138 121.5t177 40.5q164 0 261.5 -101.5t97.5 -275.5v-698h-201v631z" />
    <glyph glyph-name="o" unicode="o" horiz-adv-x="1130" 
d="M567 -29q-241 0 -374.5 146t-133.5 407q0 260 133.5 405.5t374.5 145.5q238 0 371 -145.5t133 -405.5q0 -261 -133 -407t-371 -146zM262 524q0 -183 80.5 -286t224.5 -103q142 0 221.5 103t79.5 286q0 185 -79.5 288t-221.5 103q-145 0 -225 -103t-80 -288z" />
    <glyph glyph-name="p" unicode="p" 
d="M606 -31q-190 0 -307 144v-523h-199v1454h193v-126q114 155 309 155q225 0 353 -144.5t128 -408.5q0 -256 -126 -403.5t-351 -147.5zM291 520q0 -173 76 -278t231 -105q283 0 283 383t-285 383q-156 0 -230.5 -104t-74.5 -279z" />
    <glyph glyph-name="q" unicode="q" 
d="M537 -31q-232 0 -355 144.5t-123 406.5q0 261 130 407t352 146q192 0 305 -151v122h194v-1443h-198v512q-114 -144 -305 -144zM260 520q0 -181 68.5 -282t214.5 -101q155 0 232 105t77 278q0 175 -75 279t-230 104q-287 0 -287 -383z" />
    <glyph glyph-name="r" unicode="r" horiz-adv-x="700" 
d="M100 0v1044h191v-202q56 111 157 167t220 56v-209q-74 0 -138.5 -18.5t-117.5 -55.5t-84 -100t-31 -145v-537h-197z" />
    <glyph glyph-name="s" unicode="s" horiz-adv-x="1054" 
d="M528 -29q-214 0 -335.5 94t-126.5 261h194q5 -85 75 -133t193 -48q126 0 197.5 40t71.5 110q0 23 -9 41.5t-30.5 32.5t-41.5 23t-59.5 18t-65.5 13.5t-77 12.5q-56 9 -93 16t-87 20t-82 27t-67.5 36.5t-55.5 49t-33.5 64.5t-13.5 84q0 161 119 251.5t331 90.5
q193 0 304 -91.5t116 -252.5h-194q-5 83 -64 129.5t-162 46.5q-122 0 -190 -38.5t-68 -108.5q0 -26 15 -46t35.5 -32.5t61.5 -24t72 -17.5t87 -15q56 -8 95 -15.5t89 -20t84 -27.5t70 -38t57.5 -51.5t35 -68t13.5 -87.5q0 -169 -124.5 -257.5t-336.5 -88.5z" />
    <glyph glyph-name="t" unicode="t" horiz-adv-x="663" 
d="M436 -4q-130 0 -193 64t-63 198v619h-139v167h139v269h201v-269h207v-167h-207v-564q0 -78 31.5 -107.5t115.5 -29.5h86v-180h-178z" />
    <glyph glyph-name="u" unicode="u" horiz-adv-x="1040" 
d="M438 -25q-173 0 -260.5 100.5t-87.5 293.5v678h201v-613q0 -160 43 -229.5t166 -69.5q131 0 186 88t55 264v560h197v-1043h-188v121q-101 -150 -312 -150z" />
    <glyph glyph-name="v" unicode="v" horiz-adv-x="1032" 
d="M397 0l-383 1044h213l291 -819l291 819h209l-383 -1044h-238z" />
    <glyph glyph-name="w" unicode="w" horiz-adv-x="1533" 
d="M332 0l-312 1044h207l222 -780l202 780h238l203 -776l219 776h202l-311 -1044h-221l-213 791l-215 -791h-221z" />
    <glyph glyph-name="x" unicode="x" horiz-adv-x="1034" 
d="M20 0l381 535l-356 509h238l241 -356l236 356h231l-354 -507l377 -537h-240l-264 379l-256 -379h-234z" />
    <glyph glyph-name="y" unicode="y" horiz-adv-x="1026" 
d="M106 -418v174h48q49 0 74.5 1t53 7.5t40 15t28 29.5t25.5 45.5t24 67.5l13 35l-398 1087h211l289 -827l287 827h211l-428 -1181q-38 -87 -65 -135t-65 -84.5t-84.5 -49t-117.5 -12.5h-146z" />
    <glyph glyph-name="z" unicode="z" horiz-adv-x="962" 
d="M51 0v174l602 688h-583v182h833v-174l-602 -688h610v-182h-860z" />
    <glyph glyph-name="germandbls" unicode="&#xdf;" horiz-adv-x="1185" 
d="M100 1018q0 467 469 467t469 -389q0 -260 -174 -330q262 -91 262 -336q0 -217 -131 -323.5t-395 -106.5h-108v172h108q320 0 320 258q0 254 -324 254h-104v172h108q238 0 238 240q0 229 -271 229q-268 0 -268 -307v-1018h-199v1018z" />
    <glyph glyph-name="uni1E9E" unicode="&#x1e9e;" horiz-adv-x="1351" 
d="M874 -29q-215 0 -317 89.5t-102 277.5h190q0 -97 56 -142.5t173 -45.5q224 0 224 157q0 47 -24.5 78t-64.5 45.5t-91.5 27.5t-104.5 21t-104.5 28t-91.5 47.5t-64.5 81t-24.5 126.5q0 101 152 266l217 240h-272q-96 0 -150 -12t-88.5 -51t-45.5 -101t-11 -172v-932h-209
v995q0 459 432 459h614v-170l-325 -352q-59 -63 -83 -101t-24 -69q0 -35 24 -59.5t63 -36t89 -23.5t102 -21.5t102 -31.5t89 -51.5t63.5 -82.5t24.5 -124q0 -185 -102 -273t-316 -88z" />
    <glyph glyph-name="J.ss01" horiz-adv-x="903" 
d="M61 -12v209h250q82 0 128.5 9t81.5 38.5t48 84t13 146.5v979h209v-1016q0 -140 -18 -222.5t-71 -136t-138 -72.5t-228 -19h-275z" />
    <glyph glyph-name="R.ss01" horiz-adv-x="1239" 
d="M115 0v1454h520q290 0 417.5 -103.5t127.5 -330.5q0 -115 -59 -194t-160 -119q204 -39 204 -220v-487h-211v297q0 74 -2.5 113.5t-18 78t-38 54t-73 29t-112.5 16t-167 2.5h-217v-590h-211zM326 778h309q172 0 252 59.5t80 182.5t-80.5 184.5t-251.5 61.5h-309v-488z" />
    <glyph glyph-name="a.ss01" horiz-adv-x="1134" 
d="M541 -29q-226 0 -354 144t-128 409q0 248 129.5 399.5t348.5 151.5q192 0 305 -143v112h198v-1044h-192v127q-114 -156 -307 -156zM260 524q0 -383 287 -383q155 0 229 104t74 279q0 173 -76 278t-231 105q-147 0 -215 -101.5t-68 -281.5z" />
    <glyph glyph-name="y.ss01" horiz-adv-x="1026" 
d="M289 -410l125 363l-400 1091h211l289 -827l287 827h211l-527 -1454h-196z" />
    <glyph glyph-name="zero.ss01" horiz-adv-x="1282" 
d="M641 -29q-267 0 -418 200t-151 556q0 357 151 557.5t418 200.5t418 -200.5t151 -557.5q0 -356 -151 -556t-418 -200zM281 727q0 -195 49 -326l528 811q-88 88 -217 88q-170 0 -265 -151.5t-95 -421.5zM436 238q84 -78 205 -78q170 0 265 150t95 417q0 186 -43 311z" />
    <glyph glyph-name="one.ss01" horiz-adv-x="710" 
d="M391 0v1198l-350 -297v240l362 311h193v-1452h-205z" />
    <glyph glyph-name="two.ss01" horiz-adv-x="1169" 
d="M586 602q189 161 250 255.5t61 213.5q0 117 -76.5 182.5t-212.5 65.5q-144 0 -223.5 -90t-79.5 -252h-207q0 240 134.5 374t375.5 134q234 0 367 -110t133 -304q0 -88 -14.5 -153.5t-56 -135t-110.5 -140t-182 -163.5l-346 -286h709v-193h-1026v172z" />
    <glyph glyph-name="seven.ss01" horiz-adv-x="1142" 
d="M248 0l647 1262h-834v192h1061v-176l-655 -1278h-219z" />
    </font>
</defs>
</svg>
