<svg width="21" height="20" viewBox="0 0 21 20" fill="none" xmlns="http://www.w3.org/2000/svg">
<path d="M10.0215 9.77148C9.93034 8.15365 9.50879 6.67253 8.75684 5.32812C7.91374 3.82422 7.49219 2.86719 7.49219 2.45703C7.49219 1.72786 7.75423 1.14681 8.27832 0.713867C8.8252 0.258138 9.54297 0.0302734 10.4316 0.0302734C11.2747 0.0302734 11.9697 0.235352 12.5166 0.645508C13.0863 1.05566 13.3711 1.59115 13.3711 2.25195C13.3711 2.73047 12.9609 3.74447 12.1406 5.29395C11.3887 6.68392 10.9671 8.16504 10.876 9.7373C12.3799 9.16764 13.6673 8.31315 14.7383 7.17383C15.9004 5.92057 16.6865 5.22559 17.0967 5.08887C17.3473 5.02051 17.5866 4.98633 17.8145 4.98633C18.2246 4.98633 18.6234 5.10026 19.0107 5.32812C19.6032 5.71549 20.0361 6.31934 20.3096 7.13965C20.4463 7.57259 20.5146 7.98275 20.5146 8.37012C20.5146 8.71191 20.4691 9.03092 20.3779 9.32715C20.1501 10.0107 19.7171 10.4437 19.0791 10.626C18.9424 10.6715 18.7259 10.6943 18.4297 10.6943C17.86 10.6943 16.9941 10.5918 15.832 10.3867C15.194 10.2728 14.5674 10.2158 13.9521 10.2158C13.0179 10.2158 12.0951 10.3411 11.1836 10.5918C12.1862 11.8451 13.3825 12.7907 14.7725 13.4287C16.3219 14.1579 17.222 14.6934 17.4727 15.0352C17.7689 15.4453 17.917 15.8783 17.917 16.334C17.917 16.5391 17.8942 16.7327 17.8486 16.915C17.6663 17.5986 17.222 18.2025 16.5156 18.7266C15.8548 19.2279 15.1826 19.4785 14.499 19.4785C14.4762 19.4785 14.4648 19.4671 14.4648 19.4443C13.7585 19.4443 13.2116 19.1823 12.8242 18.6582C12.5508 18.2708 12.3001 17.1999 12.0723 15.4453C11.8444 13.9186 11.3089 12.4945 10.4658 11.1729C9.59993 12.4945 9.07585 13.9072 8.89355 15.4111C8.68848 17.1201 8.46061 18.1455 8.20996 18.4873C7.77702 19.057 7.21875 19.3646 6.53516 19.4102H6.36426C5.72624 19.4102 5.07682 19.1709 4.41602 18.6924C3.73242 18.2139 3.28809 17.6328 3.08301 16.9492C2.99186 16.7214 2.94629 16.4935 2.94629 16.2656C2.94629 15.8783 3.07161 15.5137 3.32227 15.1719C3.61849 14.7845 4.56413 14.2035 6.15918 13.4287C7.54915 12.7679 8.74544 11.8337 9.74805 10.626C8.8138 10.3753 7.90234 10.25 7.01367 10.25C6.39844 10.25 5.7946 10.307 5.20215 10.4209C3.97168 10.6715 3.08301 10.7969 2.53613 10.7969C2.33105 10.7969 2.17155 10.7741 2.05762 10.7285C1.37402 10.5234 0.906901 10.0905 0.65625 9.42969C0.519531 9.13346 0.451172 8.80306 0.451172 8.43848C0.451172 8.05111 0.519531 7.64095 0.65625 7.20801C0.906901 6.41048 1.31706 5.80664 1.88672 5.39648C2.27409 5.12305 2.66146 4.98633 3.04883 4.98633C3.25391 4.98633 3.45898 5.02051 3.66406 5.08887C4.11979 5.22559 4.96289 5.93197 6.19336 7.20801C7.26432 8.32454 8.54036 9.17904 10.0215 9.77148Z" fill="#3B3B3B"/>
</svg>
