<svg xmlns="http://www.w3.org/2000/svg" width="90" height="206" fill="none"><path fill="#34312C" d="M43.106 102.245c-6.97-1.899-13.932 2.985-14.567 10.181-2.305 26.154-9.097 51.086-20.375 74.796-3.104 6.523.42 14.264 7.39 16.163 5.497 1.497 11.249-1.236 13.606-6.421 11.915-26.218 19.387-53.646 22.415-82.284.599-5.664-2.973-10.938-8.47-12.435Z"/><path stroke="#34312C" stroke-miterlimit="10" stroke-width="2.667" d="M43.106 102.245c-6.97-1.899-13.932 2.985-14.567 10.181-2.305 26.154-9.097 51.086-20.375 74.796-3.104 6.523.42 14.264 7.39 16.163 5.497 1.497 11.249-1.236 13.606-6.421 11.915-26.218 19.387-53.646 22.415-82.284.599-5.664-2.973-10.938-8.47-12.435Z"/><path fill="#fff" d="M83.844 86.104s4.543 23.588-16.13 30.483c0 0 12.907 12.652-6.337 19.339-19.245 6.686-43.558-2.607-48.273-12.834-4.715-10.226 6.534-11.137 6.534-11.137C3.3 103.344-10.59 69.728 20.715 64.632c3.242-6.742-2.688-44.64 4.021-55.878C29.71.423 44.46-3.181 48.614 15.868c2.046 9.392.085 28.782-1.852 36.59 0 0 17.775-12.024 22.951 9.276 0 0 5.909-4.634 13.687.096 4.743 2.882 7.935 8.222.444 24.274Z"/><path stroke="#34312C" stroke-miterlimit="10" stroke-width="2.667" d="M83.844 86.104s4.543 23.588-16.13 30.483c0 0 12.907 12.652-6.337 19.339-19.245 6.686-43.558-2.607-48.273-12.834-4.715-10.226 6.534-11.137 6.534-11.137C3.3 103.344-10.59 69.728 20.715 64.632c3.242-6.742-2.688-44.64 4.021-55.878C29.71.423 44.46-3.181 48.614 15.868c2.046 9.392.085 28.782-1.852 36.59 0 0 17.775-12.024 22.951 9.276 0 0 5.909-4.634 13.687.096 4.743 2.882 7.935 8.222.444 24.274Z"/><path stroke="#34312C" stroke-linecap="round" stroke-miterlimit="10" stroke-width="2.667" d="M37.63 118.051s16.125 4.316 30.083-1.464"/><path fill="#fff" d="M87.91 74.31c-4.268 18.826-15.218 35.023-27.876 27.211-14.644-9.04 5.524-27.792 5.524-27.792"/><path stroke="#34312C" stroke-linecap="round" stroke-miterlimit="10" stroke-width="2.667" d="M87.91 74.31c-4.268 18.826-15.218 35.023-27.876 27.211-14.644-9.04 5.524-27.792 5.524-27.792"/><path fill="#fff" d="M69.173 60.164c3.877 15.61-7.648 33.075-24.383 29.061-16.736-4.013 2.644-28.949 2.644-28.949"/><path stroke="#34312C" stroke-linecap="round" stroke-miterlimit="10" stroke-width="2.667" d="M69.173 60.164c3.877 15.61-7.648 33.075-24.383 29.061-16.736-4.013 2.644-28.949 2.644-28.949"/><path fill="#fff" d="M20.714 64.634c19.232-1.759 32.263 14.634 30.24 25.372-2.023 10.737-14.833 14.288-30.653-6.43"/><path stroke="#34312C" stroke-linecap="round" stroke-miterlimit="10" stroke-width="2.667" d="M20.714 64.634c19.232-1.759 32.263 14.634 30.24 25.372-2.023 10.737-14.833 14.288-30.653-6.43"/></svg>