<svg xmlns="http://www.w3.org/2000/svg" width="92" height="192" fill="none"><path fill="#34312C" stroke="#34312C" stroke-width=".133" d="M52.437 176.184c-.617 8.194 6.296 14.961 14.47 14.118 6.445-.666 11.428-5.925 11.802-12.394 1.898-32.861-1.44-65.182-10.014-96.961-1.688-6.257-7.64-10.387-14.085-9.72l-.007-.067.007.066c-8.174.844-13.558 8.88-11.28 16.777 8.325 28.847 11.36 58.241 9.107 88.181Z"/><path stroke="#34312C" stroke-miterlimit="10" stroke-width="2.667" d="M66.914 190.368c-8.216.848-15.164-5.953-14.544-14.189 2.254-29.932-.781-59.318-9.104-88.158-2.29-7.936 3.122-16.013 11.337-16.861 6.478-.67 12.46 3.481 14.157 9.77 8.575 31.786 11.914 64.114 10.015 96.982-.376 6.501-5.384 11.787-11.86 12.456Z"/><path fill="#fff" d="M82.822 69.714s13.804 12.445.208 30.606c-15.748 21.039-55.864 15.69-50.48-12.646l50.272-17.96Z"/><path stroke="#34312C" stroke-miterlimit="10" stroke-width="2.667" d="M82.822 69.714s13.804 12.445.208 30.606c-15.748 21.039-55.864 15.69-50.48-12.646l50.272-17.96Z"/><path fill="#fff" d="M46.159 96.215c-8.283.773-16.684-.94-23.794-5.26-4.41-2.682-8.796-6.594-11.916-12.29-9.658-17.632 2.322-29.697 2.322-29.697S-6.395 29.629 6.405 17.632c12.8-11.999 26.394-.707 26.394-.707s2.23-13.758 14.118-14.86C58.424 1 63.45 13.417 63.45 13.417s8.134-9.114 18.52 3.022c10.387 12.136 1.282 29.806 1.282 29.806s29.625 43.74-37.092 49.97Z"/><path stroke="#34312C" stroke-miterlimit="10" stroke-width="2.667" d="M46.159 96.215c-8.283.773-16.684-.94-23.794-5.26-4.41-2.682-8.796-6.594-11.916-12.29-9.658-17.632 2.322-29.697 2.322-29.697S-6.395 29.629 6.405 17.632c12.8-11.999 26.394-.707 26.394-.707s2.23-13.758 14.118-14.86C58.424 1 63.45 13.417 63.45 13.417s8.134-9.114 18.52 3.022c10.387 12.136 1.282 29.806 1.282 29.806s29.625 43.74-37.092 49.97Z"/><path stroke="#34312C" stroke-linecap="round" stroke-miterlimit="10" stroke-width="2.667" d="M23.05 43.415s35.451-4.419 40.64 12.519c6.02 19.659-21.527 18.398-33.06 12.55"/><path stroke="#34312C" stroke-linecap="round" stroke-miterlimit="10" stroke-width="2.667" d="M45.13 72.259s11.483 1.442 9.93 14.347M41.371 42.586s-.184-17.3-9.748-26.516M83.251 46.245c-5.165 10.533-18.01 13.702-23.208 2.218M63.45 13.418c4.92 10.041 1.23 27.201-4.329 35.865"/></svg>