<svg width="973" height="710" viewBox="0 0 973 710" fill="none" xmlns="http://www.w3.org/2000/svg">
<path d="M892.508 0.74602C873.296 4.64075 856.252 19.7472 841.778 45.6347C836.954 54.2643 831.804 61.8539 830.352 62.3663C829.384 62.7078 828.004 60.0202 827.43 56.4708C826.48 47.427 805.135 37.6447 784.498 36.1262C764.143 34.6524 729.265 38.3046 714.739 43.4307C705.058 46.8484 701.711 49.0399 696.278 56.5849C687.986 67.8804 685.89 86.0801 692.21 94.2398C695.491 98.7093 701.433 101.374 710.482 102.798L724.054 104.934L714.311 116.742C703.039 130.533 701.979 143.461 711.524 149.904C723.738 158.003 745.367 151.524 789.723 126.633L812.346 113.887L813.934 119.819C817.156 132.68 845.719 138.904 872.921 133.055C880.993 131.361 889.261 127.721 896.759 122.477C906.634 115.384 908.366 113.186 910.966 103.466C915.69 85.9261 901.09 76.2164 873.477 79.0357C854.463 80.9848 863.378 77.6936 899.658 69.0732C942.477 59.0116 961.032 51.308 969.042 39.9679C972.019 35.7422 973.578 29.5636 972.804 26.2298C971.66 20.8619 969.154 19.7262 958.451 19.0302C941.974 17.9194 927.647 21.0998 910.548 30.021L896.876 37.011L907.746 23.6504C913.744 16.1945 918.329 8.51582 917.88 6.22145C917.465 1.46166 903.647 -1.45398 892.508 0.74602ZM906.141 10.7977C906.427 12.5724 904.101 18.8769 900.762 24.5279C895.294 34.5383 894.207 35.3556 878.8 42.8134C869.725 47.315 857.789 53.837 851.984 57.6177C841.542 64.6214 841.743 64.4064 855.784 43.1444C870.549 20.7616 877.962 13.5279 890.833 9.12987C900.031 5.88329 905.606 6.51308 906.141 10.7977ZM959.972 29.8932C960.344 33.6576 959.063 38.1506 957.25 40.0885C951.007 46.7651 930.798 55.1968 894.885 65.8515C860.709 76.0382 858.409 76.4176 859.407 71.88C859.926 69.2442 857.779 66.6825 854.952 66.2375C851.559 65.704 850.706 63.8402 852.922 61.4711C855.338 58.8864 856.388 58.8045 855.989 60.9659C856.075 62.9555 861.923 60.1696 873.614 52.8684C889.219 43.4648 894.948 41.1547 920.452 35.039C944.223 29.3912 949.188 28.9371 949.034 31.8776C948.961 35.0783 944.368 39.2968 929.856 49.6133C925.503 52.8808 925.383 53.3566 930.508 51.692C933.896 50.496 941.03 44.9479 946.266 39.3479C955.005 30.3467 955.366 28.9214 950.598 27.4298C947.608 26.4651 937.475 27.5877 928.151 29.58C912.291 33.0133 911.524 33.1398 918.663 29.3218C926.485 25.1177 946.062 21.5271 954.745 22.6471C957.29 23.0475 959.681 26.3884 959.972 29.8932ZM807.923 55.1307C815.001 59.7037 822.069 77.1221 818.847 80.5679C818.041 81.4297 813.847 83.4875 809.49 85.025C804.849 86.5185 800.698 89.5711 799.009 92.7646C796.194 97.5093 795.145 97.5912 778.826 95.2707C765.617 93.439 758.189 93.7522 748.261 96.39C729.174 101.539 707.599 96.1672 703.697 85.4234C700.406 77.4937 703.8 61.7215 709.559 55.2158C713.99 50.4777 729.003 46.9106 753.063 44.7676C773.692 42.8259 795.992 47.0764 807.923 55.1307ZM833.679 85.8671C824.964 88.9426 827.136 85.5787 839.27 77.1116L850.517 69.2462L844.519 76.7021C841.46 80.6676 836.583 84.8421 833.679 85.8671ZM899.927 96.5401C903.427 107.714 894.609 118.186 876.614 124.248C860.556 129.627 836.037 126.016 830.686 117.514C825.216 109.489 829.972 105.79 844.752 106.634C853.759 107.063 858.359 106.305 861.744 103.378C866.298 99.8948 865.086 99.457 853.901 98.9321C846.792 98.5546 842.106 97.3226 843.112 96.2458C844.12 95.1691 842.38 93.9069 838.987 93.3734C835.593 92.8393 834.622 91.4506 836.797 89.8169C842.401 86.2518 870.661 83.7811 884.799 86.006C895.181 87.3927 897.566 89.0036 899.927 96.5401ZM810.252 99.4747C806.87 104.131 805.015 105.075 802.629 103.464C800.688 102.417 800.685 100.687 802.338 99.959C804.193 99.0153 804.836 97.6345 803.945 96.506C801.151 93.5956 806.271 90.2009 810.838 91.9081C813.263 92.7836 813.109 95.7242 810.252 99.4747ZM795.611 106.806C800.624 109.078 804.87 111.475 805.234 111.78C806.205 113.168 767.692 133.543 750.791 140.518C736.995 146.253 730.538 147.955 724.318 146.976C709.048 144.573 712.901 118.25 729.718 109.284C734.316 106.796 764.631 103.166 785.102 102.435C785.869 102.308 790.517 104.275 795.611 106.806Z" fill="#2C2A26"/>
<path d="M801.791 123.092C800.381 124.6 793.218 134.343 786.216 144.607C748.433 199.933 721.782 233.293 689.275 265.978C660.272 295.262 601.408 348.505 575.13 369.323C565.819 376.506 564.851 376.847 567.182 372.273C572.525 361.008 578.958 332.619 578.608 321.199C578.57 305.628 572.825 301.018 549.922 297.413C530.411 294.343 516.601 294.888 502.964 299.412C498.041 300.861 492.19 301.916 489.645 301.516C486.533 301.026 482.541 302.869 478.35 306.656C474.562 310.014 465.531 315.51 458.029 319.023C440.202 327.336 396.028 361.397 386.932 373.554C383.349 378.426 381.105 384.99 381.798 388.064C383.545 392.787 384.475 393.18 390.97 390.743C398.232 388.18 417.624 375.419 415.08 375.019C414.232 374.886 409.433 377.589 404.11 381.199C394.959 387.171 394.676 387.126 394.625 382.671C394.005 376.396 424.019 347.766 447.763 331.738C464.815 320.092 464.815 320.092 454.258 329.301C439.511 342.298 428.276 355.354 429.254 358.473C429.741 360.032 428.538 363.054 426.121 365.639C422.377 369.99 422.377 369.99 427.817 365.906C430.881 363.67 438.987 359.51 445.683 356.859C457.625 352.067 461.09 349.4 476.96 333.121C492.428 317.272 496.292 328.751 482.615 350.317C472.559 366.276 452.772 382.928 434.983 390.505L424.294 394.999L430.939 387.892C434.563 384.015 442.787 377.65 449.277 373.483C467.825 362.319 491.583 335.175 484.232 334.018C482.818 333.796 478.546 337.323 474.518 341.631C470.572 346.198 457.718 357.517 445.828 366.763C424.107 384.099 409.812 401.12 414.704 403.867C416.281 404.609 426.933 400.85 438.71 395.538C459.726 386.245 460.612 385.643 477.529 367.552C491.222 352.907 494.925 347.56 495.314 341.939C495.897 332.642 502.015 324.71 511.215 321.464C518.477 318.901 520.692 316.532 524.223 307.205C525.384 303.188 526.716 303.15 542.594 306.637C559.319 310.257 559.765 310.822 562.177 322.813C563.242 329.652 562.548 342.884 560.35 352.173C558.353 361.248 557.329 371.71 557.902 375.259C559.209 381.148 556.754 384.467 525.103 420.746C506.296 442.246 478.43 473.438 463.206 490.066C448.266 506.739 427.811 530.697 418.11 543.501C408.411 556.304 398.508 569.322 395.77 572.597C389.128 581.435 387.908 577.537 394.588 567.964C397.767 563.523 403.141 548.063 407.427 533.419C414.466 506.114 424.966 472.683 428.583 465.347C429.747 463.059 428.776 461.671 426.474 462.05C420.219 463.536 357.433 531.727 342.021 553.761C329.063 572.476 292.506 633.433 285.474 647.89C283.223 652.726 283.636 655.754 287.029 656.285C295.793 657.667 301.72 653.408 312.504 638.059L322.766 623.616L309.994 635.196L297.504 646.815L307.124 633.754C312.638 626.466 324.785 606.885 334.799 589.932C354.14 556.41 368.225 536.144 392.544 507.358L407.965 488.784L399.048 508.382C394.107 519.216 388.087 534.328 385.683 542.103C383.279 549.878 378.664 561.752 375.934 568.487C372.921 575.178 370.277 583.903 370.65 587.668C370.303 594.284 367.043 598.465 320.082 649.384C282.386 690.395 268.65 704.04 265.5 704.289C259.687 704.61 256.83 708.358 261.919 709.158C264.181 709.518 267.166 708.752 268.174 707.677C269.382 706.379 270.834 705.868 272.249 706.091C279.442 708.457 287.634 706.288 312.157 695.324C327.243 688.56 340.997 681.83 342.406 680.323C345.225 677.302 349.021 677.406 350.161 681.044C350.893 683.383 423.479 676.528 430.496 673.179C432.635 672.282 436.148 672.341 438.573 673.219C441.563 674.182 428.286 677.282 402.13 681.319C379.807 684.727 359.988 687.532 358.575 687.309C356.878 687.047 353.733 689.019 351.519 691.392C347.49 695.697 348.42 696.09 360.373 696.49C378.304 697.087 399.575 693.764 424.353 687.04C435.731 683.888 446.469 682.118 447.844 683.075C452.453 685.782 478.478 677.026 484.115 670.997C491.366 663.244 481.061 660.387 450.66 662.025C436.367 662.74 414.688 664.765 402.74 666.095C376.905 669.444 358.854 669.319 368.054 666.075C371.442 664.876 375.272 662.517 377.085 660.577C379.098 658.421 411.896 645.55 450.545 631.617C488.712 617.862 533.373 601.664 549.752 595.594C570.488 587.987 590.625 582.756 617.586 577.857C638.614 573.755 665.05 568.032 676.711 564.926C688.292 561.56 702.456 557.86 708.995 556.418C723.039 553.193 727.55 548.715 720.113 545.568C713.887 542.858 623.741 551.154 589.192 557.576C560.979 562.772 471.328 592.394 444.224 605.423C431.64 611.597 411.559 623.013 398.778 631.132C386.481 639.082 375.312 645.471 373.899 645.249C372.485 645.026 367.883 645.786 364.011 647.156C357.433 649.331 358.076 647.949 370.682 634.121C386.71 616.63 393.222 604.807 394.724 590.715C395.191 583.624 396.759 580.906 400.595 580.274C404.831 579.212 412.403 570.768 438.851 537.623C457.048 515.039 479.192 487.888 487.928 477.157C496.746 466.685 502.621 457.974 500.924 457.707C499.226 457.44 512.034 443.396 534.631 420.269C562.343 392.018 575.519 380.009 591.723 368.229C621.069 346.905 681.99 292.503 708.774 263.858C720.775 250.676 737.291 234.745 745.514 228.38C762.763 214.788 794.181 199.226 831.057 186.5C853.611 178.684 857.646 177.837 860.924 180.576C863.555 182.966 861.507 187.586 852.371 200.478C845.61 209.79 839.779 219.496 838.977 222.088C837.9 228.095 847.434 229.348 854.731 224.32C858.279 221.913 862.999 220.68 866.957 221.303C873.179 222.282 883.388 219.688 886.61 216.243C887.417 215.381 885.193 214.29 881.396 214.187C876.47 213.906 875.051 211.953 876.251 207.2C877.211 203.399 875.751 200.451 872.358 199.917C866.984 199.071 865.897 199.888 860.143 208.124C856.32 213.946 853.419 216.702 852.247 215.529C851.437 214.66 853.605 209.566 857.104 204.435C871.189 184.168 872.599 182.66 877.123 183.372C880.516 183.907 880.157 185.332 874.916 189.202C870.965 192.039 869.317 194.497 871.013 194.764C872.427 194.986 875.652 193.271 877.868 190.902C883.708 184.656 886.094 186.266 885.147 195.259C884.161 204.986 896.243 208.37 902.562 200.223C909.405 191.17 910.87 195.848 904.602 208.45C901.388 215.356 899.223 222.181 900.278 223.829C902.428 228.12 917.929 226.113 928.293 220.578C939.342 214.659 958.473 194.198 961.722 184.827C965.171 175.24 954.406 164.898 939.906 164.099C934.414 163.729 931.424 162.764 933.278 161.821C934.933 161.093 937.671 157.818 939.642 154.669C944.347 146.515 932.595 145.901 909.111 153.323C875.582 163.859 790.78 195.232 774.405 203.032C766.016 207.147 757.588 211.997 755.575 214.151C753.762 216.089 750.133 218.236 747.631 218.831C745.13 219.425 745.005 218.17 747.786 215.89C760.035 205.218 806.507 136.435 809.387 125.029C810.304 120.232 805.818 118.785 801.791 123.092ZM932.414 154.767C932.298 156.972 906.274 165.724 902.033 165.057C895.813 164.078 901.455 159.777 914.004 156.069C928.973 151.507 932.689 151.351 932.414 154.767ZM945.056 172.815C952.578 177.953 952.72 186.128 946.117 194.23C936.254 206.513 927.911 213.354 918.675 217.336L908.872 221.229L915.654 204.26C922.961 186.386 922.041 173.146 913.841 171.856C907.619 170.877 902.915 179.031 905.396 186.092C907.469 191.854 900.985 199.481 894.765 198.502C892.503 198.146 891.805 193.342 893.929 187.253C895.854 181.379 895.64 176.404 893.378 176.048C886.308 174.935 891.674 172.321 907.132 169.318C925.092 165.721 935.876 166.676 945.056 172.815ZM881.056 173.614C883.439 173.495 884.612 174.668 884.252 176.094C882.966 178.856 866.01 179.647 864.146 177.13C863.135 176.477 866.117 173.981 870.029 171.879C875.11 169.22 877.128 168.796 876.931 170.742C876.935 172.472 878.674 173.734 881.056 173.614ZM502.025 311.864C498.602 315.526 490.375 320.161 487.83 319.761C485.003 319.316 491.083 312.119 495.925 310.41C500.484 308.657 504.241 309.495 502.025 311.864ZM460.941 337.765C453.731 344.783 446.276 351.022 444.541 351.49C437.277 354.053 440.578 349.137 454.237 336.956C472.892 320.127 478.748 320.802 460.941 337.765ZM658.29 561.038C657.282 562.115 640.17 565.846 620.596 569.437C588.266 575.22 576.201 578.756 503.378 604.603C458.555 620.28 421.236 634.173 420.23 635.248C419.425 636.106 409.382 640.956 397.724 645.786C373.52 656.062 355.334 665.8 356.266 667.924C356.31 668.92 348.444 672.131 338.679 675.283C321.571 680.749 314.785 679.68 329.066 673.776C332.655 672.36 339.185 667.458 343.615 662.72C348.046 657.982 351.953 654.148 352.519 654.24C356.76 654.908 359.03 658.722 355.604 660.656C353.546 661.816 357.904 660.276 365.084 657.451C372.467 654.417 390.414 645.629 405.093 637.561C419.973 629.278 442.801 618.045 456.031 612.226C477.53 602.758 551.043 578.256 577.435 571.538C584.659 569.711 650.453 560.053 659.133 559.442C659.617 559.271 659.095 560.177 658.29 561.038ZM342.43 640.052C327.644 653.781 326.315 655.551 331.281 655.098C341.697 654.017 333.561 662.373 311.787 675.257L290.415 687.702L328.678 646.782C364.723 608.228 366.819 606.334 363.126 615.142C360.195 622.095 354.92 628.426 342.43 640.052Z" fill="#2C2A26"/>
<path d="M838.32 317.845C812.37 323.396 776.192 340.927 678.766 395.514C646.467 413.408 576.719 458.516 540.078 484.868C496.221 516.508 384.703 604.208 405.263 590.89C407.723 589.301 416.472 583.76 424.819 578.65C432.681 573.711 466.139 550.069 499.232 526.123C557.317 484.122 632.507 434.93 678.153 409.007C726.139 381.969 799.493 342.37 811.555 337.103C818.654 334.021 825.307 330.374 826.718 328.866C828.127 327.358 829.862 326.89 830.47 327.974C831.563 328.887 820.557 335.802 806.08 343.654C758.534 369.525 679.039 424.711 643.906 456.736C601.68 495.303 523.596 548.982 499.465 556.055C481.025 561.553 407.242 607.506 393.952 621.721C389.118 626.891 385.214 632.455 384.936 634.139C384.74 636.086 388.286 633.681 393.522 628.077C399.564 621.616 412.584 612.546 436.131 598.466C475.567 575.024 495.734 565.597 504.216 566.932C518.92 569.246 573.809 541.072 614.678 510.196C637.734 492.824 650.952 481.81 690.52 446.777C728.073 413.898 781.241 375.075 834.785 341.748C858.653 326.974 859.257 326.328 858.195 321.22C857.008 314.856 854.181 314.411 838.32 317.845ZM665.104 456.613C649.915 470.776 633.798 484.546 629.766 487.123C625.533 489.916 611.586 500.321 598.407 510.601C577.892 526.643 549.225 544.12 548.531 541.047C548.368 540.527 557.961 533.389 570.176 525.182C598.84 505.974 619.8 490.496 634.264 477.454C641.034 471.602 655.661 459.08 667.388 449.313C678.832 439.503 689.269 430.768 690.277 429.691C691.284 428.615 692.534 428.317 692.577 429.312C692.822 430.092 680.576 442.494 665.104 456.613ZM427.346 371.266C421.224 377.467 417.522 382.814 419.218 383.081C422.611 383.615 431.472 374.138 435.328 365.851C437.66 361.276 435.885 362.48 427.346 371.266ZM48.1054 556.919C26.0213 557.644 13.0264 560.787 7.58881 566.602C4.76939 569.617 1.66722 572.589 0.579389 573.405C-3.08826 576.287 11.2341 587.682 27.2401 594.154C35.8901 597.739 55.9742 604.358 72.1767 608.882C118.442 621.852 175.072 645.582 189.92 657.804C199.671 665.76 207.271 669.43 220.887 672.562C236.481 676.003 239.352 677.445 239 682.327C238.451 689.162 243.7 688.75 250.546 681.429C253.768 677.982 257.561 676.357 263.455 676.291C274.397 676.042 298.871 660.622 290.67 659.331C289.256 659.108 285.023 661.9 281.6 665.563C276.162 671.376 274.71 671.887 270.546 669.751C267.675 668.309 263.311 666.389 260.805 665.255C258.299 664.115 253.517 657.437 250.27 650.503C239.92 628.615 221.037 600.934 211.975 594.32C207.122 590.839 196.853 585.517 189.132 582.325C171.43 575.586 65.7088 556.478 48.1054 556.919ZM149.292 588.162C181.291 595.915 192.131 603.056 216.918 634.133C241.542 664.692 241.297 663.912 231.119 662.313C226.876 661.644 224.654 660.55 226.307 659.822C231.432 658.158 206.789 636.99 192.116 630.476C159.414 616.189 132.822 606.818 86.9975 592.687C24.6874 573.987 16.5598 569.497 47.3738 570.887C63.2041 571.649 123.313 581.602 149.292 588.162Z" fill="#2C2A26"/>
</svg>
