<svg width="294" height="336" viewBox="0 0 294 336" fill="none" xmlns="http://www.w3.org/2000/svg">
<path d="M229.96 52.3475C225.649 55.0823 209.94 70.3855 208.182 73.549C205.697 78.0191 203.579 79.7227 198.542 81.3339C196.257 82.044 192.023 83.8311 189.141 85.29C184.104 87.7113 180.367 88.6044 182.561 86.7632C183.073 86.3277 184.472 83.3247 185.597 80.1687C187.731 74.0631 187.426 69.7527 184.82 68.9343C182.91 68.3224 179.057 72.6621 174.813 80.2957C172.825 83.8717 169.966 88.0436 168.452 89.6328C166.121 92.2077 165.853 92.6891 166.204 95.1347C166.715 98.7496 168.701 100.844 171.995 101.235C173.432 101.403 174.853 101.113 175.159 100.563C175.542 99.8755 176.031 99.9673 176.909 100.816C178.896 102.91 186.317 99.9243 196.017 93.1635C196.705 92.7357 198.087 96.5649 197.629 97.3901C196.979 98.5592 181.928 108.467 179.857 109.116C178.573 109.483 178.229 109.292 177.756 108.038C176.9 105.852 173.767 105.821 169.166 107.944C164.633 110.106 157.234 114.995 156.431 116.439C155.705 117.745 155.223 117.478 152.305 114.145C151.029 112.716 148.683 110.781 147.102 109.902C145.589 109.061 143.992 107.723 143.633 107.073C143.114 106.065 143.328 106.003 144.703 106.768C145.872 107.418 146.262 107.365 145.872 106.608C145.414 105.813 145.789 105.301 147.707 104.117C150.818 102.245 153.867 102.59 158.009 105.343C160.064 106.665 161.485 107.185 161.577 106.696C161.853 105.229 158.178 102.286 153.883 100.619C150.597 99.242 149.054 99.104 146.906 99.8906L144.116 100.86L140.893 93.2172C139.068 89.0516 137.464 84.6492 137.373 83.5181C137.014 80.4382 143.414 69.412 148.658 63.8651C150.982 61.4661 156.998 55.9882 162.013 51.664L171.201 43.7185L173.99 45.179C179.301 47.7712 182.494 51.2569 185.167 56.9741C186.481 59.955 188.375 63.3487 189.239 64.5488L190.874 66.6279L188.428 65.3586C183.645 62.7895 171.655 59.9051 170.967 61.1429C170.508 61.9682 171.372 62.3582 178.417 64.7445C184.668 66.7791 197.368 73.5689 196.832 74.5317C196.641 74.8756 196.106 75.0283 195.617 74.9364C195.059 74.8064 195.158 75.7617 195.808 77.0228C196.915 79.0789 197.19 79.2319 199.345 79.0796C201.569 78.9656 203.335 77.2465 202.029 76.5202C201.685 76.329 201.609 75.6565 201.914 75.1063C202.258 74.4874 201.869 73.7307 200.837 73.1572C199.668 72.5073 199.248 71.6436 199.516 70.3521C200.006 68.0137 199.418 66.9665 196.667 65.4373C193.916 63.9081 192.992 62.494 189.753 55.2024C188.447 52.0457 186.01 48.1704 184.36 46.4428C180.212 42.246 172.746 38.1859 170.048 38.6666C168.802 38.9643 164.583 42.0201 159.783 46.2832C142.124 61.8534 142.828 61.0741 137.483 70.5262C131.527 81.0786 131.489 81.1474 137.515 93.1398L141.762 101.532L140.027 104.168C137.878 107.385 138.779 109.327 144.243 113.264C146.359 114.801 149.11 117.14 150.317 118.531C154.412 123.148 157.079 123.371 160.45 119.573C162.484 117.373 173.055 110.826 173.88 111.285C174.224 111.476 174.927 112.317 175.492 113.081C176.248 114.312 176.913 114.412 179.374 113.709C181.017 113.182 183.028 112.319 183.891 111.899C185.229 111.112 184.954 111.77 182.53 115.644C180.871 118.142 178.149 122.39 176.521 124.996C174.02 129.008 172.4 130.627 166.583 134.776C162.692 137.564 158.595 140.238 157.441 140.856C154.414 142.415 148.222 147.885 139.08 157.206C134.623 161.66 130.136 166.007 129.073 166.947C127.98 167.78 126.879 168.788 126.581 169.163C116.291 181.357 111.942 185.781 110.979 185.246C110.635 185.054 110.299 185.498 110.123 186.3C109.977 187.209 109.794 187.377 109.435 186.728C108.717 185.428 109.665 183.885 110.956 184.153C112.462 184.359 127.065 158.899 131.554 148.071C136.464 136.487 136.954 132.528 134.549 123.089C133.465 118.886 131.541 113.765 130.395 111.778C129.181 109.752 127.492 106.473 126.668 104.394C125.843 102.315 124.216 99.2501 123.024 97.5073C120.641 94.0217 120.726 91.2782 123.111 88.283C124.64 86.3423 124.678 86.2735 122.958 86.9379C120.879 87.7627 118.914 90.8115 118.876 93.3105C118.829 95.1752 125.894 111.616 127.063 112.266C127.476 112.495 128.965 116.294 130.354 120.757C133.638 131.045 133.522 136.112 129.782 145.916C127.243 152.426 111.232 182.685 110.896 181.508C110.743 180.973 114.406 172.927 119.162 163.238C122.603 156.238 124.194 149.651 124.556 140.58C124.833 133.442 123.941 125.654 122.909 125.891C122.481 126.013 122.634 125.738 123.147 125.302C124.354 124.263 122.491 120.167 120.672 119.876C118.991 119.661 118.058 121.663 115.656 130.681C113.139 139.904 113.368 139.492 112.13 138.803C110.961 138.153 111.26 133.729 112.522 133.079C112.957 132.781 113.08 132.399 112.736 132.208C112.323 131.979 112.109 131.23 112.247 130.496C112.347 129.831 112.568 129.595 112.866 130.03C113.554 131.223 113.638 130.909 115.574 120.463C117.748 109.428 117.878 106.44 117.163 95.4193C116.524 86.6916 117.505 74.724 119.088 71.5529C120.128 69.5203 119.051 66.7611 117.286 66.86C115.558 66.8901 112.644 77.1529 111.992 85.6128C111.839 87.5081 110.24 91.0307 106.456 97.839C101.669 106.611 96.7369 117.103 94.8706 122.727C94.4652 123.942 93.7769 125.99 93.3333 127.274C92.6449 129.322 92.5486 146.012 93.1902 147.449C93.3506 147.809 93.1667 149.597 92.8375 151.484C92.4014 153.402 92.2939 155.053 92.6378 155.244C92.9129 155.397 92.8667 156.452 92.5684 157.636C91.1837 162.718 92.358 172.103 95.6647 181.053C98.0167 187.672 100.01 191.211 101.386 191.166C102.479 191.143 102.426 190.753 99.4407 178.471C98.0972 172.953 97.0674 165.899 97.038 161.742C97.0696 157.798 96.7803 153.946 96.429 153.121C96.1082 152.402 96.1772 151.631 96.5669 151.577C97.744 151.241 97.6073 147.924 96.4074 147.978C95.7349 148.054 95.712 147.771 96.4077 147.167C97.065 146.633 97.1569 146.144 96.5303 145.975C96.0106 145.776 95.8962 145.173 96.202 144.623C96.5079 144.072 96.4852 142.979 96.2027 142.192C95.8819 141.474 95.9509 140.702 96.4477 140.618C96.8757 140.496 96.9067 138.983 96.4868 137.309C96.0364 135.528 96.0061 134.611 96.3651 135.261C96.7929 135.949 97.0374 135.995 97.1446 135.154C97.2441 134.489 97.8717 131.417 98.4992 128.345C99.1649 125.204 99.7924 122.132 99.892 121.467C100.084 119.503 101.169 117.226 105.864 108.133C108.25 103.518 110.429 98.7877 110.689 97.672C111.592 93.9428 113.082 95.3112 112.485 99.3003C112.148 101.364 112.063 104.107 112.292 105.315C112.521 106.522 112.069 109.602 111.358 112.177C107.831 125.161 106.683 132.894 107.92 135.203C108.249 135.745 108.241 136.731 107.973 137.213C107.056 138.863 108.484 142.448 110.547 143.595C113.985 145.506 116.432 143.535 117.006 138.453C117.167 137.192 117.695 135.595 118.108 135.014C118.52 134.434 118.834 132.898 118.75 131.591C118.667 130.284 119.057 128.61 119.691 127.793C120.479 126.7 120.731 128.191 120.469 134.167C120.315 138.492 120.176 143.276 120.145 144.79C120.129 148.381 118.523 153.7 115.104 161.792C111.22 170.886 110.111 173.69 108.459 178.443C107.656 180.697 106.172 184.824 105.208 187.529C103.962 191.067 102.31 194.2 99.0837 198.708C96.6448 202.123 94.4659 205.233 94.2365 205.646C94.0071 206.059 93.5868 206.005 93.3271 205.5C92.8993 204.813 92.6012 205.187 92.1422 206.822C91.7368 208.037 90.1997 211.774 88.6779 215.159C87.0874 218.506 86.0701 221.631 86.3298 222.136C86.6506 222.854 86.3907 223.16 85.4736 223.19C84.8011 223.267 84.0672 223.939 83.8912 224.741C83.7458 225.651 81.4363 230.939 78.8288 236.601C76.0223 242.783 73.8656 248.605 73.3682 251.12C72.9854 253.428 72.3043 256.92 71.8299 258.907C71.2868 260.855 70.8887 263.515 70.8654 264.852C70.8803 266.121 70.5283 267.726 70.1078 268.482C69.5266 269.689 69.5266 269.689 70.826 268.971C71.7662 268.414 72.1562 267.55 72.1718 266.389C72.2485 265.441 72.7457 263.737 73.3956 262.568C74.0073 261.468 74.6497 259.664 74.8029 258.579C75.1474 256.34 77.5096 253.872 77.6084 255.637C77.6842 257.93 79.4347 256.563 81.8432 252.23C83.7165 248.86 85.1613 247.233 87.9207 245.346C89.847 243.986 91.9718 242.917 92.4991 242.94C93.0647 242.894 92.1474 243.735 90.5116 244.896C87.6834 246.745 84.656 250.733 85.6188 251.268C86.5128 251.765 92.3822 251.247 92.2295 250.712C92.1379 250.391 90.984 250.2 89.7459 250.322C86.8494 250.512 86.5055 250.321 87.2319 249.014C88.8758 246.057 95.625 242.337 104.009 239.886C112.325 237.397 112.783 237.382 109.527 239.353C98.0542 246.388 95.7992 248.015 95.4855 249.551C95.2253 250.667 94.8584 251.003 94.3159 250.522C93.911 250.117 93.4142 250.2 93.2154 250.72C93.0548 251.171 90.6777 252.37 87.781 253.37C80.0921 256.028 78.4486 257.365 75.8256 263.379C74.5792 266.107 73.3479 269.293 73.0878 270.409C72.7588 271.486 71.9327 274.268 71.122 276.698C69.9364 280.45 69.5235 281.031 67.8803 281.558C66.3135 281.947 66.0002 281.863 65.6337 280.579C65.0917 278.477 66.3702 270.185 67.3792 269.666C67.8148 269.368 67.7155 269.223 67.0812 269.23C65.9501 269.322 63.4992 260.937 64.2256 259.631C64.455 259.218 64.0964 256.948 63.3176 254.625C62.6457 252.271 61.6763 247.861 61.1727 244.88C60.5472 240.661 60.6775 239.294 61.6864 238.774C63.3833 237.827 63.9343 234.892 62.3293 235.351C61.4733 235.595 60.7553 234.295 59.7475 230.764C59.0222 228.021 58.3811 224.964 58.389 223.978C58.4815 221.058 54.0053 213.079 50.6511 210.044C48.9244 208.454 47.6945 206.78 47.9621 206.298C48.2297 205.817 50.8819 204.77 53.8091 203.877C59.4802 202.258 59.7783 201.884 63.502 194.862C65.773 190.453 65.7882 190.911 63.7982 201.778C61.946 211.911 60.1239 223.772 60.2381 225.186C60.3144 225.858 60.7727 226.653 61.2541 226.921C61.8042 227.227 62.3087 226.967 62.4388 226.409C62.5306 225.92 62.8367 224.56 63.2344 223.52C63.5633 222.443 64.2596 219.409 64.7647 216.719C65.2698 214.029 66.4253 208.55 67.267 204.607C68.147 200.595 68.7976 196.995 68.6449 196.46C68.5304 195.857 68.7141 194.879 69.0582 194.26C70.1669 192.265 68.6781 186.846 66.9129 186.135C65.4916 185.615 64.9794 186.051 61.3095 191.843C59.0465 195.266 56.7911 198.513 56.1719 198.979C55.591 199.376 53.1605 200.186 50.7454 200.644C47.1228 201.33 46.0756 201.919 44.4242 204.241C43.3004 205.777 40.7702 208.062 38.7369 209.452C31.6588 214.249 22.3489 220.147 22.5477 219.627C23.0829 218.664 39.9085 201.191 42.6604 198.67C44.4185 197.126 46.7427 193.917 49.113 189.653C52.5537 183.464 53.1118 182.784 57.7974 179.537C60.5951 177.582 65.311 175.252 68.307 174.397L73.703 172.625L72.685 178.181C72.0958 181.184 71.4983 185.984 71.4058 188.903C71.3133 191.822 70.5245 197.775 69.6674 202.07C68.8409 206.472 68.3737 209.903 68.6947 209.812C69.0157 209.72 68.8931 210.912 68.3731 212.334C67.9218 213.793 67.6843 216.002 67.9437 217.316L68.3711 219.624L69.0214 216.835C69.3352 215.299 70.1233 211.776 70.7354 209.056C71.3476 206.335 71.8222 203.538 71.7765 202.973C71.769 202.338 72.0212 202.208 72.4567 202.721C73.2971 203.638 71.3911 215.002 69.7467 219.579C69.1119 221.206 68.2553 223.881 67.7581 225.585C67.3296 227.327 66.8401 228.856 66.7942 229.1C65.1118 232.936 62.8771 244.567 63.4573 246.6C63.7093 247.281 64.1602 247.441 64.9551 246.983C65.6048 246.624 66.1703 246.578 66.2314 246.792C66.6818 248.573 66.9237 258.34 66.6016 262.482C66.2716 267.61 66.7145 268.756 68.3962 267.351C68.9084 266.915 69.1072 266.396 68.8321 266.243C68.557 266.09 68.5878 265.387 68.9013 264.661C69.9949 262.208 70.4719 250.5 69.6711 244.653C68.3897 235.299 68.5505 234.038 73.4227 219.282C73.7517 218.204 75.1214 211.854 76.4759 205.045C78.6724 193.483 78.7109 192.604 77.0988 190.807C75.6549 189.195 75.4103 189.149 75.2572 190.234C75.1194 190.967 74.8057 192.503 74.4768 193.581C73.2453 197.578 73.8201 191.685 76.1396 177.311C76.4841 175.072 76.3549 172.389 75.7668 171.342C74.728 169.324 74.5522 169.317 67.2761 171.393C56.2933 174.47 52.0357 177.595 45.7204 187.497C42.2799 192.877 39.2219 196.758 35.7284 200.127C31.3559 204.268 22.9926 213.483 15.86 221.941C14.224 223.912 11.2115 229.169 10.2479 231.874C10.2019 232.119 10.7062 232.669 11.4244 233.159C12.349 233.763 13.1667 233.587 14.1682 232.433C18.2428 227.857 30.9852 218.376 36.8476 215.603C38.2158 214.924 40.5318 213.51 41.9153 212.479L44.4607 210.653L48.869 215.355C52.8724 219.651 53.4911 220.805 55.6672 228.226C56.9499 232.72 57.9801 238.154 57.8496 240.332C57.6265 245.429 59.1522 255.64 61.2138 262.458C62.1071 265.385 62.7249 269.779 62.5485 272.202C61.7195 285.515 61.8493 285.767 66.8325 284.576C68.5062 284.156 69.5226 284.271 69.3926 284.829C69.2548 285.562 69.5987 285.754 70.5617 285.479C71.7005 285.212 72.3275 283.76 74.1404 277.746C77.3838 266.405 79.3644 262.195 82.3378 260.247C84.8755 258.597 104.388 251.35 109.012 250.319C111.466 249.793 126.37 243.224 129.16 241.444C131.117 240.192 135.305 240.269 143.023 241.769C157.306 244.578 162.266 243.104 172.525 233.233C175.873 229.963 177.448 227.778 180.147 222.437C182.036 218.715 183.817 215.835 184.161 216.026C184.436 216.179 185.292 215.124 186.133 213.611C186.936 212.167 190.231 208.507 193.464 205.444C198.38 200.974 199.312 199.782 198.755 198.842C197.777 197.038 197.426 197.023 191.288 198.833C187.329 199.963 183.118 202.033 178.111 205.371C171.255 209.931 169.749 210.535 158.139 213.443C150.199 215.42 143.977 217.543 141.516 219.056C139.238 220.4 137.289 221.477 137.083 221.363C136.326 220.942 141.165 215.8 143.397 214.7C146.095 213.409 146.432 212.156 143.948 212.576C140.111 213.324 144.927 209.519 153.212 205.303C157.928 202.973 162.101 201.782 170.547 200.355C183.852 198.12 184.961 197.746 184.082 196.087C183.723 195.437 183.188 194.78 182.776 194.551C182.432 194.359 176.945 195 170.701 196.03C154.491 198.631 144.738 203.382 139.179 211.275C136.664 214.828 135.938 215.325 130.833 216.898C127.798 217.822 120.599 218.951 114.875 219.37C100.354 220.39 98.2291 221.459 89.9191 231.873C87.2739 235.174 84.5372 238.154 83.7499 238.436C83.0315 238.757 82.8785 239.032 83.3371 239.017C84.1472 239.017 82.9618 241.959 78.6415 250.54C76.9822 253.849 75.8896 253.062 76.7313 249.118C77.7414 244.548 84.3627 233.285 86.4417 232.461C87.3359 232.148 88.345 230.818 89.018 229.122C89.6833 227.601 91.3123 223.375 92.7042 219.738C95.595 212.433 96.3901 211.164 107.047 197.014C116.474 184.429 121.496 179.119 131.38 171.38C135.576 168.042 142.311 162.243 146.21 158.469C150.177 154.733 157.462 148.43 162.423 144.526C167.384 140.622 172.459 136.512 173.598 135.435C175.655 133.517 181.755 125.296 184.294 121.215C185.662 118.915 185.517 119.015 187.611 119.458C189.04 119.803 189.086 120.368 188.13 123.708C184.71 135.85 188.008 149.027 196.58 157.573C211.838 172.717 212.656 173.351 217.172 173.161C220.489 173.025 221.911 171.925 224.549 167.18C226.422 163.81 228.9 156.275 228.212 155.893C228.006 155.778 228.19 154.8 228.725 153.837C230.086 150.903 229.301 143.895 226.888 137.872C225.612 134.822 224.23 131.803 223.832 131.222C222.694 129.869 221.427 125.834 221.809 125.146C222 124.802 222.848 125.544 223.604 126.774C224.429 128.043 224.865 129.365 224.635 129.778C224.406 130.191 224.536 130.443 224.926 130.39C225.285 130.229 225.644 130.879 225.781 131.765C225.88 132.721 226.957 133.86 228.814 134.892C234.453 138.027 236.731 137.492 246.355 130.869C249.55 128.684 251.193 128.158 254.678 128.204C257.108 128.205 260.432 128.703 262.129 129.376C268.303 131.548 271.269 128.965 268.466 123.806C266.38 119.946 260.36 115.069 245.093 104.961C235.718 98.6692 234.961 98.2487 231.797 98.1102C229.864 98.0256 227.907 98.4683 227.349 99.1484C226.531 100.134 226.63 100.279 227.907 100.089C230.146 99.623 236.289 103.308 249.401 112.758C262.413 122.062 264.66 123.851 264.721 124.875C264.705 125.227 263.1 124.875 261.129 124.049C257.079 122.427 251.921 121.99 248.634 123.044C247.419 123.449 243.842 125.511 240.723 127.559C235.862 130.798 234.715 131.24 232.598 130.514C229.335 129.42 226.891 126.531 223.698 119.805C220.704 113.369 217.45 108.859 216.196 109.333C215.768 109.455 214.752 110.15 214.086 110.86C213.024 111.8 213.054 112.717 214.391 115.171C215.231 116.898 217.079 122.157 218.423 126.865C219.874 131.542 221.859 136.877 222.837 138.681C225.411 143.443 225.953 146.355 225.156 152.484C224.743 156.305 223.718 159.606 221.814 163.679C219.221 168.989 218.885 169.432 216.974 169.631C214.567 169.913 213.169 168.865 206.858 161.756C204.574 159.226 201.541 156.1 200.227 154.739C196.643 151.306 193.711 141.844 193.965 134.424C194.058 130.694 195.29 124.268 197.172 117.482C199.307 109.756 199.965 105.981 199.461 104.62C199.048 103.581 199.125 102.633 199.591 102.442C200.088 102.358 200.623 103.016 200.722 103.971C200.813 105.102 201.218 105.507 201.791 105.286C202.227 104.988 203.106 105.026 203.725 105.37C204.344 105.714 204.573 106.112 204.252 106.204C203.434 106.379 202.942 116.818 203.384 123.635C204.084 133.387 205.245 136.643 207.66 135.375C208.203 135.047 208.096 133.457 207.432 131.737C206.836 130.056 206.447 128.489 206.562 128.283C206.906 127.664 206.22 120.801 205.83 120.044C205.601 119.647 205.411 116.75 205.48 113.548L205.558 107.74L208.425 106.633C210.756 105.678 211.421 104.967 212.599 102.201C214.182 98.22 215.833 97.5174 226.922 96.0302C231.775 95.3972 234.236 94.6948 234.305 93.9229C234.405 93.2581 234.664 92.9524 234.894 93.3499C235.085 93.8161 237.049 93.1976 239.212 92.0595C242.239 90.5013 243.011 89.7602 242.812 88.6597C242.614 87.5591 242.27 87.368 240.703 87.7573C238.25 88.284 237.868 87.3515 239.901 85.9611C242.546 84.2806 246.246 79.4058 246.407 77.3347C246.568 75.2637 244.59 71.3732 242.871 70.4175C242.252 70.0734 239.386 70.3707 236.573 71.0577L231.338 72.3784L232.829 69.6963C234.779 66.1891 235.391 63.4686 234.298 63.4912C233.84 63.5063 233.756 63.0096 234.207 62.3601C235.743 60.2436 235.881 59.51 235.209 56.3459C234.553 52.8302 232.101 50.9266 229.96 52.3475ZM231.242 60.892C229.742 69.4204 224.948 75.938 218.322 78.4658C215.708 79.4433 210.266 79.8392 210.091 79.0214C209.877 78.2724 215.985 71.4953 222.009 65.8417C225.571 62.5106 228.896 58.9578 229.47 57.9263C230.922 55.313 231.938 57.0481 231.242 60.892ZM242.273 76.0268C242.922 78.098 241.653 80.5432 239.498 81.5056C238.022 82.2159 237.885 82.1394 238.046 80.8785C238.115 80.1066 237.901 79.3576 237.488 79.1283C237.076 78.8989 236.716 79.0593 236.732 79.5178C236.747 79.9763 234.209 82.4365 231.029 85.0799C227.818 87.6162 225.349 90.1146 225.471 90.5426C225.594 90.9706 226.434 91.8879 227.32 92.5607C228.65 93.5698 228.329 93.6614 225.043 93.095C222.911 92.72 219.288 92.5967 216.919 92.81C212.074 93.2672 211.271 93.0912 211.532 91.1654C211.601 90.3936 211.448 89.8586 211.058 89.912C210.699 90.0724 210.156 89.5908 209.836 88.8723C209.24 87.1908 205.533 87.3809 202.774 89.2678C201.681 90.1005 200.405 90.2912 199.931 89.8478C199.457 89.4044 198.716 88.6323 198.105 88.1125C197.433 87.3786 196.714 87.6994 195.415 89.2275C192.823 92.108 185.898 96.6303 181.748 98.1042L178.132 99.4253L177.873 97.3007C177.53 94.6793 175.26 94.2277 173.609 96.5505C172.149 98.5295 171.025 98.4451 169.925 96.2133C169.253 94.6693 169.368 94.463 172.235 91.7355C174.581 89.6192 175.415 88.282 175.859 86.1882C176.899 81.7253 182.779 72.9306 183.282 75.1012C183.511 76.3087 182.119 79.9461 181.73 79.1894C181.432 78.7537 181.111 78.8453 181.05 79.4414C180.92 79.9993 179.971 82.3529 178.924 84.5612C174.565 94.0212 179.295 95.3905 192.839 88.5161C195.935 86.9961 199.833 85.6521 201.636 85.4845C203.44 85.3169 205.336 84.6601 206.001 83.9496C206.704 83.1703 208.401 83.0332 210.777 83.4541C212.802 83.8597 215.263 83.9674 216.295 83.7308C217.327 83.4941 219.008 83.7086 220.078 84.2133C221.147 84.718 222.699 84.6802 223.853 84.0615C224.969 83.5115 227.912 82.2666 230.487 81.3579C234.821 79.716 237.045 77.9818 235.67 77.2172C235.326 77.026 232.124 77.7664 228.554 78.843L222.127 80.8512L226.224 77.3674C228.716 75.1518 230.742 73.9373 231.506 74.182C232.27 74.4268 232.981 74.2818 233.21 73.8692C233.439 73.4565 233.722 73.4337 233.814 73.7547C233.936 74.1827 235.38 74.1754 236.978 73.8931C240.425 73.1986 241.67 73.711 242.273 76.0268ZM236.645 88.7421C235.957 89.9799 232.059 91.3239 230.852 90.7428C229.958 90.2458 231.341 88.4043 233.627 86.8842C236.058 85.2646 237.907 86.4726 236.645 88.7421ZM210.224 95.2996C210.781 96.2397 210.766 97.4014 210.254 97.8368C209.741 98.2723 209.275 99.2733 209.275 100.083C208.976 102.888 208.227 103.912 206.637 103.208C205.881 102.788 204.933 102.711 204.604 102.979C204.345 103.284 203.305 102.887 202.457 102.145C200.623 100.585 197.904 96.733 199.142 97.4211C199.692 97.727 199.96 97.2456 200.327 95.2892C200.679 92.8744 200.901 92.6375 203.996 91.9276C207.443 91.2331 208.306 91.6231 210.224 95.2996ZM198.315 104.253C198.085 104.666 197.703 104.543 197.375 104.001C197.016 103.351 196.756 103.657 196.518 105.055C195.493 109.976 192.746 120.423 192.318 120.545C191.569 120.759 190.783 117.801 191.54 117.411C191.937 117.182 191.884 116.792 191.54 116.601C190.852 116.219 189.973 116.991 189.453 118.412C189.331 118.794 189.017 118.71 188.758 118.205C188.529 117.808 189.102 115.966 190.096 114.178C191.893 110.946 192.337 108.042 190.984 108.37C190.09 108.683 187.988 111.656 184.662 117.639C180.502 124.959 181.183 122.277 185.557 114.085C188.623 108.408 189.938 106.528 191.635 105.581C192.827 104.894 194.669 103.847 195.755 103.19C197.704 102.113 199.156 102.74 198.315 104.253ZM188.054 204.327C184.844 206.863 175.433 218.286 172.986 222.687C170.539 227.088 159.937 235.958 155.802 237.08C154.09 237.569 148.947 237.591 144.423 237.146C131.867 235.927 129.215 236.164 122.603 239.15C119.294 240.731 113.317 242.9 109.35 244.206L102.066 246.458L105.835 244.052C107.937 242.7 113.784 239.469 118.76 236.833C123.843 234.168 129.438 231.066 131.181 229.875C139.023 224.512 146.704 221.22 159.575 217.662C172.767 214.013 173.271 213.753 179.868 208.688C186.648 203.455 190.309 201.079 190.523 201.828C190.653 202.08 189.514 203.158 188.054 204.327ZM100.841 201.215C99.0441 203.637 97.4158 205.433 97.3929 205.15C97.0798 204.256 100.131 198.93 100.872 198.892C101.33 198.877 101.957 198.235 102.378 197.479C102.76 196.791 103.379 196.325 103.654 196.478C103.929 196.631 102.676 198.724 100.841 201.215ZM130.318 225.434C121.842 229.994 107.044 236.532 101.985 237.86C98.5989 238.769 96.6882 238.967 97.5978 238.302C98.5762 237.676 99.8985 237.241 100.563 237.34C101.893 237.539 102.749 236.485 101.786 235.95C101.236 235.644 91.8809 240.166 84.803 244.153C83.5036 244.871 83.5495 244.626 85.1932 242.479C89.4592 236.749 96.8133 228.864 99.8631 226.778C102.554 224.853 104.9 224.357 114.339 223.573C120.491 223.032 127.621 221.864 130.159 221.024L134.737 219.428L133.682 221.813C133.093 223.196 131.686 224.754 130.318 225.434ZM96.7652 209.032C95.5113 211.126 95.4731 211.195 95.8404 209.238C96.1924 207.633 95.7567 207.931 93.937 210.881L91.6968 214.587L93.0046 211.263C93.8841 208.871 94.7785 207.748 95.9632 207.236C98.1492 206.381 98.2485 206.526 96.7652 209.032ZM105.956 247.72C101.569 248.972 97.6558 249.858 97.2432 249.628C96.8993 249.437 100.369 248.215 105.039 246.94C109.671 245.734 113.584 244.849 113.645 245.063C113.813 245.246 110.343 246.468 105.956 247.72Z" fill="#39352F"/>
<path d="M80.2639 242.44C79.6522 243.54 78.9715 245.412 78.7114 246.528L78.3058 248.553L79.2615 246.834C79.7968 245.871 80.4774 243.999 80.814 242.746L81.4108 240.377L80.2639 242.44Z" fill="#39352F"/>
</svg>
