<svg xmlns="http://www.w3.org/2000/svg" width="400" height="400" fill="none"><g fill="#34312C" clip-path="url(#a)"><path d="M176.267 4.934c-3.6 8.133-3.2 36.933.8 49.333 2.8 8.934 4.8 12.267 6.533 10.667.4-.4-.533-4-2.133-8-4.667-12.667-6.134-27.867-3.734-40.933 1.067-6.267 2.4-12.4 2.934-13.734 1.866-4.666-2.134-2.133-4.4 2.667ZM211.467 17.467c-1.466 4.134-1.466 18.934 0 19.467 1.867.667 3.467-18.267 1.734-20.133-.667-.8-1.334-.4-1.734.666ZM190.801 33.066c.533 15.6-.267 13.2 13.6 39.6 2.667 5.067 5.867 13.466 7.067 18.666 3.333 14.001 3.066 13.334 4.8 11.601 2.133-2.134-3.067-20.8-9.2-32.667-2.667-5.334-6.267-12.267-8-15.6-4-7.867-6.134-20.133-5.067-28.933.8-6.134.533-7.067-1.333-7.067-2 0-2.267 1.6-1.867 14.4ZM213.334 48.133c0 2.666 10 18.533 11.733 18.533 2.4 0 2-1.733-1.733-7.2-1.867-2.667-4.267-6.667-5.333-8.8-2-3.867-4.667-5.333-4.667-2.533ZM229.466 78.933c0 .933 1.066 5.866 2.4 10.8 2.133 8.4 4.266 11.466 5.2 7.333.533-3.067-4.4-18.8-6-19.466-.934-.267-1.734.266-1.6 1.333ZM188.801 82.934c1.2 2.4 3.867 8.933 5.867 14.4 3.6 9.466 6.666 13.6 6.666 8.4-.133-5.067-10-26.4-12.4-26.8-2.4-.534-2.4-.267-.133 4ZM234.266 122.934c-.533 7.6-1.333 16.667-1.733 20.4-.667 5.467-.533 6.4.933 5.067 1.867-1.867 4.934-21.067 5.067-32.133.133-4.934-.4-6.934-1.733-6.934-1.334 0-2 3.467-2.534 13.6ZM201.333 116.001c-.133.4-.267 7.733-.533 16.266-.267 14.8.533 19.2 2.533 13.067 1.467-4.667 1.067-26.8-.533-28.4-.8-.8-1.467-1.2-1.467-.933ZM214.801 132.134c-1.467 13.467-1.334 17.467.533 15.6 1.067-1.067 3.067-13.333 3.333-20.4.267-8.933.134-10-1.066-10-.667 0-1.867 6.667-2.8 14.8ZM187.999 150.666c-25.066 2-45.866 8.133-49.333 14.533-1.067 2.134-1.067 7.067-.133 18.534 1.866 21.066 2.666 38.933 1.866 38.933-3.333 0-11.066-3.467-11.066-4.933 0-2.934-7.467-9.734-10.534-9.734-1.466 0-4.266-1.6-6.133-3.466-2.8-2.8-4.133-3.2-7.467-2.534-3.333.8-4.8.267-8-2.8-3.466-3.333-5.2-3.866-13.866-4.266-9.6-.534-10-.4-14.133 3.6l-4.134 4.133-17.333-1.467c-9.467-.8-18.133-1.066-19.2-.666-4.267 1.6-1.467 8.933 16.133 41.333 14.134 26.133 17.734 33.867 17.2 36.667-.533 2.133 0 4.133 1.067 5.066.933.8 7.733 2.4 15.066 3.6 60 9.734 72.534 11.467 80.8 11.467 8.267 0 13.467-1.333 39.734-10 26.933-8.933 30.266-10.4 31.866-13.6.8-2 1.6-4.533 1.6-5.733 0-1.334 3.067-4.134 6.8-6.534l6.934-4.266 50.8 7.466c27.866 4 52.8 7.734 55.2 8.134 3.2.666 4.266.4 4.266-1.067s-4.8-2.667-20.266-4.933c-11.2-1.734-23.6-3.334-27.334-3.734-3.866-.4-7.066-1.066-7.066-1.466 0-.4 1.466-2.267 3.2-4.134 1.866-2 4.8-6.533 6.666-10.133 7.467-14.933 7.6-28.933.267-40.933-3.333-5.734-5.733-7.867-12.533-11.334-5.334-2.8-10.4-4.4-13.734-4.4h-5.2l.8-13.066.934-13.067-3.6-2.933c-12.267-9.6-53.2-15.2-90.134-12.267Zm64.8 6.4c17.067 3.733 26.934 9.2 25.2 13.867-2 5.066-19.466 10.666-41.066 13.2-19.734 2.266-55.334.933-72.267-2.8-14.4-3.2-17.067-4.267-21.6-8.4-2.4-2.134-2.667-3.2-1.6-5.2 2.8-5.2 20.133-10.8 42.533-13.6 2.534-.267 16.4-.4 30.667-.134 19.6.4 28.933 1.067 38.133 3.067Zm-104.133 23.067c26.667 11.866 97.6 11.6 122.533-.267 2.934-1.333 5.467-2.267 5.734-2 .266.133-.134 10-.934 21.6-.666 11.6-1.333 29.733-1.333 40.133 0 14.4-.4 19.067-1.6 19.067-.933 0-6.533-.667-12.533-1.467l-10.8-1.6 2.8-4.933c2.533-4.667 2.533-5.2.533-8.267-2-3.066-8.933-5.866-16.667-6.8-5.733-.533-3.066 2.267 3.734 4 8 2 10.533 3.734 10.533 6.934 0 2.8-6.667 9.2-14.533 14.133-3.334 2-6.4 5.2-7.2 7.467-1.734 4.533-3.067 5.2-14.267 6.133-9.467.8-12 2.133-12 5.867 0 3.066-3.467 3.333-4.533.4-1.867-4.934 3.2-9.867 9.866-9.867 1.467 0 2.667-.933 2.667-2 0-3.467-12.267.267-14.933 4.667-1.867 2.8-8.267 3.733-9.734 1.333-.933-1.6 7.6-5.6 17.067-8.133 6.267-1.734 8.4-3.867 4-3.867-1.333 0-3.6-.4-5.067-.8-1.733-.4-4 .4-5.866 2-1.734 1.6-3.734 2.8-4.267 2.8-.533 0-1.867.4-3.067.8-3.333 1.333-2.533-1.333 2-5.867 4.934-5.066 7.067-5.2 19.067-.933l9.2 3.2 7.2-2.533c9.6-3.334 14.933-6.534 18.133-11.067 2.534-3.2 2.534-3.867.8-5.6-2.133-2.267-16.666-5.733-18-4.4-1.866 1.867 1.2 3.733 6.134 3.733 9.733 0 12.266 3.067 5.866 7.334-3.466 2.266-4.533 2.133-25.066-.667-11.867-1.733-21.6-3.2-21.867-3.333-.267-.267.8-2.4 2.267-4.8 1.466-2.534 3.066-6.667 3.466-9.334 1.734-9.066-5.333-17.066-13.333-15.066-1.6.4-3.467.133-3.867-.667-.533-.8-3.333-1.467-6.266-1.467-6.534 0-13.2 5.734-13.2 11.334 0 2.4-.8 3.866-2.667 4.266-2.933.8-3.733 4.4-.8 4.4 1.6 0 4 5.2 2.933 6.4-.266.267-4 0-8.266-.666l-7.867-1.067-.8-27.067c-.533-14.8-1.333-29.066-1.733-31.6-.534-2.533-.667-4.666-.4-4.666.4 0 3.466 1.2 6.933 2.8Zm143.467 16.533c8.4 3.067 13.866 7.733 17.733 15.6 6.4 12.8 3.867 28.933-6.933 43.067l-5.067 6.666-7.333-.533c-4-.133-7.467-.667-7.734-.933-.266-.267 2-2.934 4.934-5.867 13.2-13.2 16.133-33.333 6.266-42.667-2-1.866-5.466-3.2-9.2-3.6-6.533-.8-6.933-1.466-5.333-9.6 1.067-4.8 3.6-5.333 12.667-2.133Zm-203.067 1.867c1.733 0 4.4 1.6 6.133 3.466 2.4 2.667 4.4 3.334 9.334 3.334 3.333 0 6.133.533 6.133 1.333 0 1.6-13.733 0-14.8-1.733-1.333-1.867-7.466 0-10.666 3.2-2 2-2.667 3.866-2.134 6.4.4 2 .267 4.4-.4 5.466-.933 1.467-1.466 1.067-2.533-1.733-2.267-5.733-1.733-8.8 1.867-12.4 1.866-1.867 3.333-3.867 3.333-4.533 0-2.534-2.4-1.334-6 2.933-3.067 3.733-3.6 5.2-3.067 10.667.533 4.4.267 6.4-.8 6-2.4-.8-2.666-14.934-.133-16.934 2.533-2.133 2.533-4-.133-4-2.8 0-6.267 8.934-5.334 13.6.4 2.4.267 3.6-.533 3.067-2.4-1.467-1.6-13.333 1.067-15.733 2.266-2 7.6-3.2 12.933-2.8 1.466.133 4 .266 5.733.4Zm-37.333 6.266C58.4 205.333 64 206.266 64 206.933c0 .8-1.334 1.066-2.934.666-1.733-.4-9.2-1.2-16.666-1.733-7.6-.533-13.734-1.467-13.734-2.267 0-.666 1.867-.933 4.4-.533 2.267.4 9.867 1.2 16.667 1.733Zm8.4 5.734c3.466.666 4.666 1.733 5.467 5.2.666 2.4 2.266 4.8 3.466 5.2 1.2.4 3.2 1.6 4.267 2.533 1.333 1.067 3.867 1.333 7.333.667 5.067-.8 5.334-1.067 5.734-6.267l.4-5.333 15.066 1.466c8.267.934 15.733 2 16.667 2.534.8.533 9.333 16.666 18.933 35.733 15.2 30.533 17.067 34.667 14.267 34-1.734-.4-20.4-3.2-41.734-6.267-21.2-2.933-40-5.733-41.466-6-2.133-.533-6.133-6.533-15.2-23.6-6.8-12.666-14.8-27.466-17.733-32.933l-5.2-9.733 12.666.933c7.067.533 14.667 1.333 17.067 1.867Zm49.466-.4c5.734.4 11.2 1.466 12.267 2.4 2.667 2 38.4 72.8 37.733 74.666-.266.8-8.8-15.2-19.066-35.466-12.534-25.2-19.334-37.334-21.334-38.134-1.466-.8-8.933-1.733-16.266-2.266-7.467-.534-13.6-1.6-13.6-2.267 0-.8 2.133-.933 5.067-.533 2.666.4 9.599 1.066 15.199 1.6Zm182.8 5.866c3.067 3.467 3.6 5.2 3.6 11.734 0 4.533-1.066 9.733-2.533 12.933-2.533 5.6-12.8 18-14.933 18-.8 0-1.067-7.2-.667-17.733.267-9.6.667-20.534.667-24.134l.133-6.533 5.067.8c3.2.533 6.266 2.267 8.666 4.933Zm-114.666 6c-1.334 10.534-2.134 12.8-4.267 12-1.2-.533-3.733-1.2-5.733-1.6-4-.8-4.534-2.533-2.267-7.6 2.8-5.866 12.933-8.266 12.267-2.8Zm14.533 1.6c2.533 2.267 3.333 10.267 1.2 13.6-.8 1.334-1.733 1.467-3.867.267-1.466-.8-4.666-1.467-6.933-1.467-4 0-4.133-.133-3.333-4.4 2-9.466 7.466-12.933 12.933-8Zm-55.067 1.867c4.667 1.6 5.734 4.667 1.2 3.333-1.733-.4-3.466-.8-3.866-.8-.934 0-2.8-4-2-4 .266 0 2.266.667 4.666 1.467Zm4.134 10.667c0 4.933-.8 4.933-3.334-.134-2.533-4.933-2.533-5.2.667-4.4 1.867.534 2.667 1.867 2.667 4.534Zm31.866 2.4c3.467 2.933 2.667 5.466-1.466 5.466-1.6 0-2.4-.4-2-.8 1.466-1.6-1.6-5.6-4.667-6.266-2.4-.4-2.133-.667 1.067-.8 2.4 0 5.333.933 7.066 2.4Zm17.2 3.333c.134.267 0 1.467-.533 2.667-1.333 3.466-5.467 2.666-6.267-1.334-.533-3.066-.266-3.333 2.934-2.533 1.866.533 3.6 1.067 3.866 1.2Zm1.467 8.8c20.133 2.933 36.8 5.6 37.2 5.867.267.4-1.867 1.333-4.933 2.266-4.8 1.467-6.267 1.2-12.934-1.333-9.333-3.467-17.066-3.6-21.333-.267-2.533 2-4.267 2.267-7.6 1.467-2.267-.533-11.333-2.133-20-3.333-14.933-2.134-15.733-2.534-17.6-6.134-3.067-5.733-2.533-6.266 4.4-5.066 3.467.666 22.667 3.6 42.8 6.533Zm-24.4 8.667c16.667 2.533 18.267 2.933 17.333 4.4-1.066 1.866-34.533-4.134-35.2-6.267-.4-1.2 0-1.6 1.334-1.067 1.2.4 8.533 1.734 16.533 2.934Zm2.133 15.6c-1.333 1.333-8.533 0-7.6-1.467.267-.533 2.4-.8 4.667-.4 2.667.4 3.733 1.067 2.933 1.867Zm-55.6 8.933c21.334 3.067 40.667 5.867 43.067 6.267 3.2.533 4.267 1.333 4.267 3.466 0 2.667-.534 2.667-7.6 1.867-4.267-.4-25.734-3.733-47.734-7.333-34.266-5.467-40-6.667-40.4-8.667-.666-2.933-4-3.2 48.4 4.4Zm72.267-4.4c-1.067 1.2-21.6 6.8-22.533 6.267-2.667-1.467-.8-3.867 2.666-3.467 2 .267 6.934-.667 10.934-2 6.266-2.267 10.8-2.667 8.933-.8Zm27.733.667c-4.266 1.333-8.133 2.266-8.266 2-.267-.267-.134-1.467.4-2.667.666-1.6 2.533-2.133 8.4-2l7.466.133-8 2.534Zm-17.6 5.333c-2.133 1.867-28.533 9.467-30.4 8.667-5.2-1.867-1.333-4.534 13.067-9.067 13.333-4.267 15.067-4.533 16.667-2.667.8 1.2 1.2 2.534.666 3.067Z"/><path d="M176.667 159.599c-36.533 6.533-21.733 18.267 25.333 20 28.267 1.067 53.6-2.4 61.467-8.267 6-4.4-4.267-9.866-23.867-12.533-14.4-2-50-1.6-62.933.8Zm66.533 4.933c5.734 1.2 10.8 2.4 11.2 2.8 1.734 1.734-2.666 3.467-13.2 5.467-20.266 3.867-74 .933-74.933-4.133-1.067-6.134 51.6-8.934 76.933-4.134ZM167.334 209.467c-.8 1.2 3.6 3.867 6.4 3.867 1.067 0 3.333-1.067 4.933-2.4 2.934-2.4 2.934-2.4-3.866-2.533-3.734 0-7.2.4-7.467 1.066ZM195.334 209.334c-.533.8-2 1.067-3.2.667-2.8-.8-6.8.4-6.8 2 0 .667 1.2 1.6 2.8 2 3.467 1.067 10.533-1.733 10.533-4.133 0-2.134-2.133-2.534-3.333-.534ZM82 240.001c-2.4 4-1.867 12 .8 12 .8 0 2.266.933 3.333 2 4.933 4.933 9.333.4 8.666-9.067 0-1.2-.933-2.267-2-2.267-.933 0-2.533-.933-3.466-2-1.867-2.266-6.133-2.666-7.334-.666Z"/><path stroke="#34312C" d="M181.5 242.5c1.733-2.421 4.692-.173 5.137.836 1.334 2.493-1.334 4.095-2.834 3.561-1.5-.535-4.47-1.371-2.303-4.397Z"/></g><defs><clipPath id="a"><path fill="#fff" d="M0 0h400v400H0z"/></clipPath></defs></svg>