<svg width="1185" height="637" fill="none" xmlns="http://www.w3.org/2000/svg"><path stroke="#34312C" stroke-width="1" fill-rule="evenodd" clip-rule="evenodd" d="M901.363 535.518c49.474 23.488 167.437 53.842 243.507-12.647 95.08-83.111 0-148.871-111.32-158.092-22.79-1.888-33.766-1.386-47.377-.763-7.891.361-16.669.763-29.152.763 85.809-25.897 193.409-95.036 220.319-164.415 33.62-86.725-45.23-178.87-259.743-24.392 33.24-33.124 87.663-109.67 39.424-150.864-60.296-51.493-216.836 19.874-299.164 110.212C664.428 93.765 654.146 8.666 560.455.716 443.34-9.22 388.841 86.538 414.351 143.451 367.196 89.248 247.608-12.292 146.495 15.171 20.104 49.499 200.994 203.074 242.738 210.3c33.395 5.782 10.049 2.409-5.798 0-75.371-15.659-228.2-37.581-236.549 0-10.435 46.976 190.167 149.961 281.771 154.478-76.143 9.937-229.823 43.724-235.388 99.372-6.335 63.333 245.9 71.249 350.626 29.204-72 39.677-163.659 103.861-97.844 124.371 92.764 28.908 241.186-32.522 325.834-102.986-22.418 34.028-50.789 105.697 15.074 120.151 82.328 18.068 163.497-84.919 162.337-120.151 9.663 34.931 42.904 102.444 98.562 93.048 55.658-9.395 23.191-52.094 0-72.27Zm-73.069-82.779c-.422-13.624-1.749-56.524 65.009-44.412-61.457-18.068-204.539-80.949-95.077-147.438-11.159 1.554-21.999 3.391-32.063 5.097-62.088 10.525-94.604 16.036 9.968-80.981-35.173 27.101-118.97 80.22-172.773 75.884-53.803-4.336-77.303-67.452-82.328-98.469-3.865 40.653-45.454 107.864-180.89 51.493 52.18 31.619 133.116 94.855 39.425 94.855 71.505 3.313 146.457 62.52 67.608 113.11 3.672-1.321 7.693-2.786 11.993-4.353 66.312-24.163 199.074-72.54 144.192 12.296 1.224-.963 2.488-1.96 3.788-2.986 39.361-31.059 112.115-88.467 114.809-18.508 15.848-30.715 59.046-47.524 106.356 44.982l-.017-.57Z" fill="#F2F1ED"/></svg>